<svg width="120" height="38" viewBox="0 0 120 38" fill="none" xmlns="http://www.w3.org/2000/svg">
<g clip-path="url(#clip0_445_710)">
<path d="M51.9049 17.4926C51.9192 17.5036 51.9335 17.5154 51.9471 17.5264C52.3232 17.9276 52.7007 18.3273 53.0333 18.7685L53.0319 18.7671C53.168 19.0251 53.3176 19.2761 53.4373 19.5417C53.9216 20.6122 53.9842 21.7409 53.8631 22.8917C53.5985 25.4111 52.3042 27.1054 49.9398 27.9346C48.6563 28.3848 47.3225 28.5384 45.9764 28.5487C43.2822 28.5695 40.5873 28.5577 37.8931 28.5584C37.3891 28.5584 37.2612 28.4284 37.2612 27.9152C37.2612 20.6558 37.2612 13.3964 37.2612 6.13624C37.2612 5.60719 37.3816 5.48617 37.9101 5.48617C40.435 5.48617 42.9591 5.48617 45.484 5.48547C46.0975 5.48547 46.7069 5.52766 47.3089 5.64661C48.7985 5.94191 50.0997 6.59406 51.0547 7.82368C52.1538 9.23933 52.466 10.8749 52.147 12.619C51.8634 14.1689 51.0893 15.4095 49.68 16.1737C49.6616 16.1834 49.6521 16.209 49.6215 16.2498C50.484 16.4953 51.2227 16.9434 51.9062 17.4926H51.9049ZM42.2116 21.3329C42.2116 22.1621 42.2116 22.9906 42.2116 23.8198C42.2116 23.9318 42.1926 24.0466 42.3701 24.0438C43.7366 24.0182 45.1058 24.1116 46.4689 23.9878C47.1763 23.9235 47.8306 23.6711 48.3305 23.1282C48.9386 22.4684 49.025 21.6544 48.9332 20.8045C48.8407 19.9476 48.3754 19.3633 47.6157 19.005C47.1144 18.7685 46.5845 18.6565 46.0363 18.6523C44.8473 18.6426 43.6584 18.6523 42.4694 18.6392C42.2449 18.6364 42.2048 18.7208 42.2075 18.9241C42.2177 19.727 42.2116 20.5299 42.2116 21.3329ZM42.2109 12.2124H42.213C42.213 12.8687 42.2191 13.525 42.2089 14.1806C42.2062 14.3646 42.2647 14.4157 42.4415 14.4137C43.07 14.4047 43.6985 14.4151 44.3263 14.4095C44.8181 14.4047 45.3105 14.4393 45.8009 14.359C47.3341 14.1087 48.1435 12.4136 47.3878 11.025C47.0253 10.3583 46.4063 10.1176 45.7145 10.0519C44.6058 9.94681 43.4917 10.0298 42.3803 10.0049C42.1878 10.0008 42.2109 10.1245 42.2109 10.2449C42.2109 10.9012 42.2109 11.5568 42.2109 12.2131V12.2124Z" fill="white"/>
<path d="M74.9189 16.6885C74.9305 16.6823 74.9339 16.6733 74.9291 16.6608C74.9597 16.6096 74.9937 16.5605 75.0203 16.5066C76.3078 13.8689 78.3287 12.2832 81.2671 12.0425C82.8369 11.9139 84.2381 12.362 85.4515 13.3987C85.7066 13.6165 85.927 13.8738 86.2174 14.1255C86.2555 13.6753 86.282 13.2818 86.3242 12.8897C86.3643 12.5211 86.516 12.3841 86.8718 12.3834C87.9764 12.3814 89.0817 12.3807 90.1863 12.3834C90.5917 12.3848 90.7427 12.539 90.7427 12.9485C90.744 18.1678 90.7468 23.3871 90.74 28.6063C90.7386 29.6866 90.5141 30.7212 89.9353 31.6444C89.1402 32.9114 88.0328 33.8028 86.6459 34.3056C83.9096 35.2987 81.1528 35.2952 78.3906 34.4066C77.356 34.0739 76.3738 33.6279 75.4984 32.9646C75.2678 32.7897 75.1944 32.5732 75.3216 32.3312C75.7372 31.5386 76.1616 30.7509 76.599 29.9708C76.752 29.6976 76.9907 29.6492 77.2547 29.809C78.5395 30.5877 79.9387 30.9501 81.4235 31.0262C82.6322 31.0877 83.7933 30.9259 84.8924 30.3775C85.8617 29.8934 86.3412 29.1112 86.346 28.0206C86.348 27.5973 86.3487 27.1734 86.3446 26.7502C86.3439 26.6796 86.3773 26.5966 86.297 26.5275C85.9821 26.8581 85.6644 27.1803 85.3033 27.4535C83.7076 28.661 81.9255 28.836 80.0393 28.4335C79.3258 28.2813 78.6769 27.9611 78.0342 27.6264L78.0355 27.6278C77.9682 27.5773 77.9036 27.5227 77.8335 27.4763C77.1615 27.0275 76.5629 26.4943 76.0643 25.8518C74.4516 23.775 73.9857 21.4043 74.3326 18.8268C74.4319 18.0868 74.6734 17.387 74.9196 16.6885H74.9189ZM82.3472 16.5163C81.5997 16.5031 80.9276 16.7237 80.3264 17.1781C78.4756 18.5765 78.4572 21.1595 79.5312 22.674C80.6882 24.3062 83.0192 24.6153 84.4816 23.3151C85.525 22.3877 85.978 21.2107 85.8358 19.7999C85.676 18.2162 84.2129 16.4409 82.3479 16.5163H82.3472Z" fill="white"/>
<path d="M106.594 26.1257C106.582 26.1298 106.578 26.1374 106.582 26.1492C105.986 26.7557 105.337 27.2931 104.597 27.7128C103.054 28.5884 101.396 28.8553 99.6544 28.6727C97.7662 28.475 96.129 27.7246 94.7605 26.3774C94.1952 25.8207 93.7552 25.1685 93.343 24.4936C93.3491 24.4811 93.3464 24.4721 93.3341 24.4666C93.3314 24.45 93.3328 24.4306 93.3253 24.4161C92.4397 22.6941 92.1921 20.867 92.4642 18.9582C92.6982 17.3164 93.3314 15.8517 94.4503 14.6366C96.2514 12.6801 98.4824 11.8253 101.107 12.0667C103.266 12.2652 104.962 13.3019 106.24 15.0688C106.609 15.5799 106.87 16.1511 107.143 16.7168L107.138 16.7314L107.149 16.7417C107.317 17.2839 107.507 17.8199 107.596 18.3849C107.751 19.3794 107.825 20.3746 107.61 21.369C107.506 21.8462 107.247 22.0565 106.773 22.0917C106.629 22.1028 106.484 22.1028 106.34 22.1028C103.844 22.1028 101.347 22.1028 98.8504 22.1028C98.341 22.1028 97.8315 22.1097 97.322 22.0993C97.1472 22.0959 97.1207 22.1505 97.1724 22.3075C97.3669 22.9002 97.6642 23.4251 98.1328 23.8373C98.8185 24.4403 99.6456 24.6685 100.523 24.7495C101.815 24.8684 103.023 24.636 104.094 23.8449C104.546 23.6153 104.616 23.6284 104.995 24.0074C105.467 24.4784 105.93 24.9555 106.413 25.4147C106.632 25.6243 106.708 25.8435 106.593 26.1271L106.594 26.1257ZM100.269 18.9679C101.263 18.9679 102.257 18.9693 103.251 18.9665C103.357 18.9665 103.512 19.0198 103.463 18.7978C103.327 18.1899 103.105 17.629 102.667 17.1747C101.936 16.4181 101.037 16.158 100.02 16.221C98.6042 16.3095 97.403 17.3448 97.1037 18.7355C97.0636 18.9209 97.0935 18.9734 97.286 18.9714C98.2804 18.9631 99.2742 18.9672 100.269 18.9672V18.9679Z" fill="white"/>
<path d="M15.0947 21.2078H23.5017C20.6599 18.113 17.8705 15.0756 15.0811 12.0375C15.16 11.9324 15.2518 11.9718 15.328 11.9712C16.9087 11.9691 18.4895 11.9712 20.0702 11.9705C20.7551 11.9705 21.3217 12.2319 21.7877 12.7409C23.3854 14.4857 24.9866 16.2271 26.587 17.9692C27.8161 19.3074 29.0479 20.6435 30.275 21.9837C31.1136 22.9001 31.0973 24.1497 30.2553 25.0647C27.7583 27.7757 25.2654 30.4908 22.7712 33.2045C22.4291 33.5766 22.091 33.9528 21.7489 34.3255C21.302 34.8131 20.7531 35.0552 20.0947 35.0531C18.871 35.0482 17.6474 35.0489 16.4231 35.0552C16.1455 35.0565 15.9163 34.9929 15.7966 34.7149C15.6769 34.4369 15.785 34.2197 15.9741 34.0136C18.0473 31.7633 20.1171 29.5101 22.1883 27.257C22.5597 26.8531 22.9304 26.4492 23.2997 26.0433C23.3487 25.9893 23.4187 25.9444 23.4201 25.851C23.333 25.7991 23.2392 25.8247 23.1501 25.824C21.9346 25.822 20.7198 25.8199 19.5043 25.8247C19.356 25.8247 19.2519 25.7805 19.1506 25.6705C17.8378 24.2466 16.5203 22.8261 15.2048 21.4042C15.1606 21.3565 15.1035 21.3143 15.0947 21.2078Z" fill="#00E0FF"/>
<path d="M69.9778 7.6102C70.0452 7.77272 70.054 7.94354 70.0533 8.11782C70.0513 9.37095 70.0567 10.6241 70.0472 11.8772C70.0458 12.0902 70.0989 12.1587 70.3145 12.1545C71.045 12.1414 71.7762 12.1483 72.5074 12.1504C72.9516 12.1511 73.0856 12.2887 73.0863 12.7368C73.0863 13.6788 73.0869 14.6207 73.0863 15.5626C73.0863 15.9755 72.9427 16.1228 72.5333 16.1242C71.8021 16.1269 71.0709 16.1359 70.3404 16.1193C70.0962 16.1138 70.0472 16.1988 70.0472 16.4278C70.0533 20.239 70.0506 24.0503 70.0506 27.8615C70.0506 28.421 69.9452 28.5289 69.3983 28.5289C68.225 28.5282 67.0524 28.5289 65.879 28.5289C65.4009 28.5289 65.2737 28.4037 65.2737 27.9182C65.2737 24.0987 65.2737 20.2784 65.2737 16.4589C65.2737 16.2366 65.1633 16.1255 64.9424 16.1255C64.2282 16.1255 63.5147 16.1269 62.8005 16.1255C62.3924 16.1248 62.2441 15.9796 62.2428 15.5654C62.2394 14.6062 62.2394 13.6469 62.2428 12.6877C62.2441 12.297 62.3836 12.1531 62.7679 12.1511C63.5072 12.1462 64.2473 12.14 64.986 12.1573C65.2274 12.1628 65.2798 12.0819 65.2778 11.8516C65.2676 10.5985 65.2723 9.34536 65.2723 8.09223C65.2723 7.58047 65.3954 7.45598 65.9069 7.45598C67.0966 7.45598 68.2869 7.45737 69.4765 7.45253C69.6629 7.45183 69.8295 7.48365 69.9731 7.60744L69.9758 7.61159L69.9778 7.6102Z" fill="white"/>
<path d="M116.199 22.2178C116.199 24.1016 116.199 25.9862 116.199 27.87C116.199 28.424 116.1 28.5263 115.566 28.5263C114.384 28.5263 113.203 28.5263 112.02 28.5263C111.562 28.5263 111.425 28.3887 111.425 27.9295C111.425 24.1009 111.423 20.2717 111.433 16.4432C111.433 16.1707 111.356 16.1133 111.105 16.1195C110.383 16.1361 109.66 16.1264 108.937 16.123C108.544 16.1209 108.395 15.9736 108.394 15.5739C108.391 14.6057 108.392 13.6381 108.396 12.6699C108.398 12.3 108.545 12.1526 108.911 12.1499C109.659 12.145 110.408 12.1374 111.155 12.1526C111.391 12.1575 111.432 12.0752 111.43 11.8573C111.42 10.5952 111.425 9.3338 111.425 8.07168C111.425 7.59103 111.557 7.4541 112.028 7.45341C113.226 7.45272 114.425 7.45341 115.623 7.4541C116.065 7.4541 116.195 7.58827 116.195 8.04609C116.197 9.29922 116.195 10.5523 116.195 11.8055C116.195 12.0332 116.311 12.1471 116.543 12.1471C117.248 12.1471 117.954 12.1457 118.66 12.1485C119.095 12.1499 119.226 12.282 119.227 12.7197C119.229 13.6706 119.229 14.6209 119.227 15.5718C119.226 15.977 119.088 16.1216 118.692 16.123C117.943 16.1264 117.195 16.1306 116.448 16.1195C116.245 16.1167 116.191 16.179 116.191 16.383C116.199 18.3277 116.195 20.2724 116.195 22.2171H116.197L116.199 22.2178Z" fill="white"/>
<path d="M1.066 13.0577C1.14286 12.9629 1.21972 12.8682 1.29727 12.7734C2.25088 11.7409 3.20586 10.7105 4.15743 9.67586C6.06127 7.60598 7.96306 5.53542 9.86417 3.46347C10.2927 2.99527 10.8205 2.74838 11.4449 2.74354C12.7114 2.73386 13.9779 2.74216 15.2444 2.7387C15.509 2.7387 15.7069 2.83621 15.813 3.08932C15.9212 3.34659 15.8362 3.55959 15.66 3.75116C14.3541 5.17027 13.0481 6.59006 11.7428 8.00986C11.6388 8.12328 11.5395 8.24223 11.4381 8.35842C11.2 8.61775 10.962 8.87709 10.7246 9.13643C9.87029 10.059 9.01598 10.9816 8.16235 11.9034C8.16915 11.9262 8.17595 11.9484 8.18276 11.9712C8.31267 11.9712 8.44327 11.9712 8.57318 11.9712C9.73765 11.9712 10.9014 11.9733 12.0659 11.967C12.2312 11.9663 12.3462 12.0134 12.4618 12.1379C13.7575 13.5431 15.0587 14.9422 16.3579 16.344C16.4136 16.4042 16.4599 16.4747 16.5429 16.5826H8.18684C8.17596 16.6033 8.16507 16.6248 8.15419 16.6455C10.9429 19.6829 13.7317 22.7196 16.5211 25.7577C16.4415 25.8607 16.3504 25.8199 16.2735 25.8199C14.7268 25.8227 13.1801 25.8116 11.634 25.8268C10.8688 25.8345 10.26 25.5537 9.74446 24.9817C8.71126 23.8365 7.6563 22.7113 6.61017 21.5771C5.71029 20.5909 4.81109 19.6041 3.90985 18.6193C3.03717 17.6656 2.15906 16.7175 1.28842 15.7617C0.634087 15.0438 0.528659 14.0148 1.01363 13.1725C1.03471 13.1358 1.049 13.095 1.06668 13.0563L1.066 13.0577Z" fill="#00E0FF"/>
<path d="M60.4268 12.3379C60.4656 12.5164 60.4703 12.6969 60.4703 12.8787C60.469 17.8733 60.469 22.8671 60.469 27.8617C60.469 28.4038 60.3533 28.5221 59.8296 28.5221C58.6399 28.5214 57.4503 28.5221 56.26 28.5207C55.8349 28.5207 55.6866 28.3783 55.6866 27.9495C55.6845 22.8602 55.6845 17.7709 55.6866 12.6816C55.6866 12.2888 55.8444 12.1298 56.2321 12.1284C57.4557 12.1242 58.6794 12.1284 59.903 12.1235C60.1125 12.1228 60.2812 12.1955 60.4275 12.3393L60.4261 12.3379H60.4268Z" fill="white"/>
<path d="M55.5322 8.12578C55.5363 6.64098 56.6518 5.48674 58.0809 5.48951C59.5127 5.49227 60.635 6.66587 60.6329 8.15829C60.6309 9.66315 59.5208 10.7987 58.0632 10.7883C56.5933 10.778 55.5282 9.65761 55.5322 8.12578Z" fill="white"/>
</g>
<defs>
<clipPath id="clip0_445_710">
<rect width="118.519" height="36.3638" fill="white" transform="translate(0.710449 0.688232)"/>
</clipPath>
</defs>
</svg>
