<svg width="156" height="35" viewBox="0 0 156 35" fill="none" xmlns="http://www.w3.org/2000/svg">
<g clip-path="url(#clip0_445_694)">
<path d="M15.3064 20.0295C14.6545 20.0295 14.0025 20.0295 13.3223 20.0295C12.1319 20.0295 16.185 25.8443 19.1044 26.513C19.7563 26.6584 20.0964 26.9782 20.0964 27.6469C20.0964 29.0715 20.1248 30.4962 20.0964 31.9208C20.0681 32.7349 19.6146 33.1129 18.8493 32.9966C13.2656 32.0371 9.18413 28.9843 6.66155 23.7801C6.29308 23.0532 6.00964 22.2682 5.78289 21.4541C5.35774 20.1167 5.3294 20.0586 3.94056 20.0004C2.23994 19.9423 1.10619 19.041 0.737727 17.4419C0.312572 15.6393 1.70141 13.7495 3.54375 13.6332C3.79884 13.6041 4.05393 13.6041 4.30903 13.6332C5.10265 13.6913 5.5278 13.2552 5.72621 12.5284C6.17971 10.6967 7.00167 9.03946 8.02204 7.46945C8.87235 6.19019 9.32585 6.13204 10.4029 7.20778C11.2249 8.02186 12.0185 8.86501 12.8121 9.67909C13.3506 10.2024 13.464 10.7548 13.0105 11.3945C12.7838 11.7143 12.5854 12.0922 12.4153 12.4702C12.0468 13.2552 12.2452 13.6041 13.0956 13.6041C14.5978 13.6332 16.0716 13.6041 17.5738 13.6041C19.1611 13.6332 20.3232 14.6217 20.6916 16.2498C20.9751 17.5582 20.2665 19.1573 18.906 19.6806C18.1124 20.0004 17.177 19.9423 16.2984 20.0295C15.9583 20.0586 15.6465 20.0295 15.3064 20.0295Z" fill="#007EA4"/>
<path d="M21.9114 0.521247C27.0699 0.753841 31.6332 3.37051 34.751 8.48757C35.8281 10.2611 35.5163 11.9183 33.9858 12.8778C32.3418 13.9535 30.4995 13.5174 29.4508 11.802C27.8919 9.21442 25.6811 7.55719 22.7617 7.00478C20.3525 6.56867 18.085 7.03386 15.9875 8.31312C15.0522 8.8946 14.7688 8.83646 14.0035 8.05145C13.1815 7.2083 12.3596 6.36515 11.5376 5.522C10.829 4.76607 10.8573 4.24274 11.6793 3.60311C14.3153 1.62607 17.9149 0.463099 21.9114 0.521247Z" fill="#1AA64A"/>
<path d="M22.1366 29.769C22.1366 29.0421 22.1366 28.3152 22.1366 27.5884C22.1366 27.036 22.4201 26.6871 22.9019 26.5999C25.8496 25.9602 28.0321 24.2739 29.5627 21.6573C30.2429 20.4943 31.32 20.0291 32.5954 20.2326C33.7575 20.4071 34.6645 21.0176 35.1747 22.1515C35.5148 22.9365 35.4581 23.7215 35.0897 24.4775C33.8709 26.8906 32.1419 28.8095 29.9878 30.3214C28.0038 31.7169 25.793 32.5891 23.4121 32.938C22.5618 33.0543 22.165 32.7345 22.1366 31.8623C22.1083 31.1936 22.1366 30.4667 22.1366 29.769Z" fill="#1AA64A"/>
<path d="M46.3989 10.2603V24.8555H43.7063V10.2603H39.313V7.93433H50.7638V10.2603H46.3989Z" fill="white"/>
<path d="M50.7637 19.3893C50.7637 18.5752 50.9054 17.8193 51.2172 17.1215C51.5006 16.3947 51.9541 15.7841 52.4926 15.2317C53.0312 14.6793 53.6831 14.2723 54.3917 13.9815C55.1002 13.6908 55.8655 13.5454 56.6308 13.5454C57.4244 13.5454 58.1897 13.6908 58.8983 13.9815C59.6069 14.2723 60.2588 14.7084 60.7973 15.2899C61.3642 15.8423 61.7893 16.4819 62.0728 17.2088C62.3562 17.9065 62.5263 18.6625 62.5263 19.4475C62.5263 20.2615 62.3846 21.0175 62.1011 21.7152C61.8177 22.413 61.3925 23.0527 60.8257 23.6051C60.2304 24.1866 59.5785 24.6227 58.87 24.9134C58.1614 25.2041 57.3961 25.3495 56.6025 25.3495C55.8372 25.3495 55.0719 25.2041 54.3633 24.9134C53.6547 24.6227 53.0028 24.1865 52.4643 23.6341C51.8974 23.0527 51.4723 22.413 51.1888 21.7152C50.9337 20.9593 50.7637 20.2034 50.7637 19.3893ZM59.9754 19.4184C59.9754 18.4008 59.6636 17.5286 59.0117 16.8308C58.3598 16.133 57.5945 15.7841 56.6591 15.7841C55.7521 15.7841 54.9585 16.133 54.3066 16.8308C53.6547 17.5286 53.3429 18.4008 53.3429 19.4184C53.3429 20.436 53.6547 21.3082 54.3066 22.006C54.9585 22.7038 55.7238 23.0527 56.6591 23.0527C57.5945 23.0527 58.3598 22.7038 59.0117 22.006C59.6636 21.3082 59.9754 20.436 59.9754 19.4184Z" fill="white"/>
<path d="M65.1616 24.8842V6.94543H67.5992V18.4588L72.0775 13.8942H75.1102L70.2635 18.7205L75.5921 24.8551H72.4176L67.5992 19.1857V24.8551H65.1616V24.8842Z" fill="white"/>
<path d="M75.8203 19.3892C75.8203 18.5751 75.962 17.8192 76.2738 17.1214C76.5572 16.3946 77.0107 15.784 77.5493 15.2316C78.0878 14.6792 78.7397 14.2721 79.4483 13.9814C80.1569 13.6907 80.9222 13.5453 81.6874 13.5453C82.4811 13.5453 83.2464 13.6907 83.9549 13.9814C84.6635 14.2721 85.3154 14.7083 85.854 15.2897C86.4208 15.8421 86.846 16.4818 87.1294 17.2086C87.4129 17.9064 87.5829 18.6623 87.5829 19.4473C87.5829 20.2614 87.4412 21.0173 87.1578 21.7151C86.8743 22.4129 86.4492 23.0525 85.8823 23.6049C85.2871 24.1864 84.6352 24.6225 83.9266 24.9133C83.218 25.204 82.4527 25.3494 81.6591 25.3494C80.8938 25.3494 80.1285 25.204 79.42 24.9133C78.7114 24.6225 78.0595 24.1864 77.5209 23.634C76.9541 23.0525 76.5289 22.4129 76.2455 21.7151C75.9904 20.9592 75.8203 20.2033 75.8203 19.3892ZM85.032 19.4183C85.032 18.4007 84.7202 17.5284 84.0683 16.8307C83.4164 16.1329 82.6511 15.784 81.7158 15.784C80.8088 15.784 80.0152 16.1329 79.3633 16.8307C78.7114 17.5284 78.3996 18.4007 78.3996 19.4183C78.3996 20.4359 78.7114 21.3081 79.3633 22.0059C80.0152 22.7036 80.7804 23.0525 81.7158 23.0525C82.6511 23.0525 83.4164 22.7036 84.0683 22.0059C84.7202 21.3081 85.032 20.4359 85.032 19.4183Z" fill="white"/>
<path d="M98.182 17.0332C97.8135 16.5971 97.36 16.2773 96.8782 16.0738C96.368 15.8412 95.8295 15.7249 95.2626 15.7249C94.2706 15.7249 93.4486 16.0447 92.8534 16.7134C92.2582 17.3821 91.9464 18.2543 91.9464 19.3592C91.9464 20.4931 92.2582 21.3944 92.8534 22.0631C93.4486 22.7027 94.2989 23.0516 95.376 23.0516C95.9712 23.0516 96.5097 22.9353 96.9632 22.7027C97.4167 22.4701 97.8419 22.1212 98.182 21.656V24.5634C97.7285 24.8251 97.2467 25.0286 96.7365 25.1449C96.2263 25.2612 95.6878 25.3484 95.0926 25.3484C93.4203 25.3484 92.0598 24.796 90.9827 23.6912C89.934 22.5864 89.4238 21.1618 89.4238 19.4173C89.4238 17.6438 89.9624 16.2192 91.0678 15.1434C92.1732 14.0677 93.5903 13.5153 95.3476 13.5153C95.9145 13.5153 96.4247 13.5734 96.8782 13.6897C97.3317 13.806 97.7852 13.9804 98.182 14.213V17.0332Z" fill="white"/>
<path d="M103.142 15.6374C103.397 14.9106 103.766 14.3872 104.191 14.0383C104.616 13.6895 105.155 13.515 105.806 13.515C106.147 13.515 106.487 13.5441 106.827 13.6313C107.167 13.7185 107.479 13.8348 107.819 14.0093L106.94 16.1317C106.742 15.9863 106.515 15.87 106.26 15.7828C106.005 15.6956 105.75 15.6665 105.438 15.6665C104.616 15.6665 104.049 15.9863 103.681 16.655C103.341 17.3237 103.142 18.4576 103.142 20.0276V24.8539H100.705V13.8639H103.142V15.6374Z" fill="white"/>
<path d="M111.051 30.0307H108.528L111.476 23.9251L107.536 13.8945H110.257L112.213 19.564C112.326 19.9129 112.44 20.2618 112.525 20.6107C112.61 20.9595 112.695 21.3375 112.723 21.7155C112.808 21.3375 113.063 20.727 113.432 19.8838L113.488 19.7384L116.124 13.8945H118.789L111.051 30.0307Z" fill="white"/>
<path d="M120.093 30.0294V13.8932H122.53V15.6958C122.814 14.998 123.267 14.4747 123.891 14.0967C124.514 13.7188 125.28 13.5153 126.13 13.5153C127.547 13.5153 128.709 14.0677 129.588 15.1434C130.467 16.2192 130.92 17.6438 130.92 19.3882C130.92 21.2199 130.495 22.6736 129.616 23.7494C128.738 24.8251 127.547 25.3484 126.045 25.3484C125.28 25.3484 124.628 25.2031 124.033 24.8833C123.437 24.5634 122.927 24.0982 122.502 23.4586V30.0584H120.093V30.0294ZM122.474 19.3592C122.474 20.4931 122.757 21.3944 123.296 22.0921C123.862 22.7608 124.571 23.1097 125.478 23.1097C126.413 23.1097 127.122 22.7899 127.632 22.1503C128.142 21.5106 128.397 20.6094 128.397 19.4464C128.397 18.2834 128.142 17.3821 127.604 16.7425C127.065 16.1029 126.357 15.754 125.421 15.754C124.486 15.754 123.777 16.0738 123.267 16.7134C122.729 17.324 122.474 18.2253 122.474 19.3592Z" fill="white"/>
<path d="M134.123 24.8838V16.1034H132.252V13.8938H134.123V9.73621H136.56V13.8938H138.431V16.1034H136.56V24.8838H134.123Z" fill="white"/>
<path d="M139.764 19.3896C139.764 18.5755 139.905 17.8196 140.217 17.1218C140.501 16.3949 140.954 15.7844 141.493 15.232C142.031 14.6795 142.683 14.2725 143.392 13.9818C144.1 13.691 144.866 13.5457 145.631 13.5457C146.424 13.5457 147.19 13.691 147.898 13.9818C148.607 14.2725 149.259 14.7086 149.797 15.2901C150.364 15.8425 150.789 16.4821 151.073 17.209C151.356 17.9068 151.526 18.6627 151.526 19.4477C151.526 20.2618 151.385 21.0177 151.101 21.7155C150.818 22.4133 150.393 23.0529 149.826 23.6053C149.23 24.1868 148.579 24.6229 147.87 24.9136C147.161 25.2044 146.396 25.3498 145.602 25.3498C144.837 25.3498 144.072 25.2044 143.363 24.9136C142.655 24.6229 142.003 24.1868 141.464 23.6344C140.897 23.0529 140.472 22.4133 140.189 21.7155C139.905 20.9596 139.764 20.2036 139.764 19.3896ZM148.975 19.4186C148.975 18.401 148.664 17.5288 148.012 16.831C147.36 16.1333 146.594 15.7844 145.659 15.7844C144.752 15.7844 143.959 16.1333 143.307 16.831C142.655 17.5288 142.343 18.401 142.343 19.4186C142.343 20.4362 142.655 21.3085 143.307 22.0062C143.959 22.704 144.724 23.0529 145.659 23.0529C146.594 23.0529 147.36 22.704 148.012 22.0062C148.664 21.3085 148.975 20.4362 148.975 19.4186Z" fill="white"/>
</g>
<defs>
<clipPath id="clip0_445_694">
<rect width="154.883" height="33.6702" fill="white" transform="translate(0.710449 0.694702)"/>
</clipPath>
</defs>
</svg>
