<svg width="182" height="41" viewBox="0 0 182 41" fill="none" xmlns="http://www.w3.org/2000/svg">
<path fill-rule="evenodd" clip-rule="evenodd" d="M108.371 14.7029C105.195 15.503 103.707 17.993 104.609 20.995C104.996 22.2814 106.186 23.579 107.868 24.5495C110.899 26.2985 111.792 27.0068 112.311 28.0739C112.743 28.9641 112.78 29.2617 112.562 30.0686C112.05 31.9628 110.713 33.0074 108.802 33.0074C106.85 33.0074 105.48 31.9127 105.173 30.1093C105.051 29.3842 104.9 29.1525 104.549 29.1525C104.13 29.1525 104.087 29.3444 104.087 31.1813V33.2096L105.356 33.6408C107.338 34.314 110.158 34.2335 111.84 33.4558C115.118 31.9406 116.374 28.933 114.903 26.1228C114.353 25.0716 112.972 23.8983 110.607 22.4715C108.12 20.9717 107.013 19.8808 106.85 18.772C106.6 17.0681 108.133 15.6579 110.228 15.6639C111.868 15.6685 112.572 16.0569 113.154 17.2779C113.518 18.0424 113.779 18.2951 114.21 18.3019C114.687 18.3091 114.758 18.2202 114.636 17.7685C114.556 17.4704 114.489 16.7231 114.487 16.1077C114.485 15.3264 114.372 14.9462 114.113 14.8472C113.406 14.5768 109.282 14.4732 108.371 14.7029ZM44.6069 15.4194C44.6069 15.7661 44.7682 15.9012 45.1819 15.9012C46.3492 15.9012 46.4119 16.2381 46.5412 23.2256C46.6541 29.3301 46.696 29.8176 47.1839 30.7187C47.8829 32.0093 48.8309 32.8682 50.2889 33.532C51.2877 33.9866 51.9183 34.083 53.9158 34.0871C56.0826 34.0912 56.4775 34.0213 57.7191 33.4137C58.481 33.041 59.43 32.3422 59.8279 31.8611C61.2079 30.1931 61.3538 29.387 61.5105 22.578C61.6612 16.0213 61.6817 15.9147 62.8013 15.9048C63.0624 15.9027 63.2245 15.7162 63.2245 15.4194C63.2245 14.9643 63.0636 14.9375 60.3232 14.9375C57.6146 14.9375 57.4217 14.9686 57.4217 15.4042C57.4217 15.7535 57.6175 15.8897 58.2019 15.9463C59.486 16.0704 59.5903 16.5639 59.5941 22.5433C59.5982 28.6054 59.3913 29.7718 58.0931 30.9993C56.8861 32.1411 55.9255 32.5257 54.2808 32.5257C51.9186 32.5257 50.2444 31.426 49.6956 29.514C49.5108 28.8709 49.4429 26.5062 49.4913 22.4064L49.5636 16.2627L50.4098 15.9906C50.8752 15.841 51.2911 15.543 51.3342 15.3281C51.4033 14.9828 51.0182 14.9375 48.0096 14.9375C44.7682 14.9375 44.6069 14.9604 44.6069 15.4194ZM67.0933 15.4194C67.0933 15.7923 67.2543 15.9012 67.8072 15.9012C69.0383 15.9012 69.7316 16.3744 70.0101 17.4044C70.1687 17.9901 70.2368 20.7873 70.1904 24.7851C70.1072 31.9232 70.0095 32.3903 68.533 32.6844C68.0465 32.7815 67.8186 32.9708 67.8186 33.2786C67.8186 33.6987 68.0549 33.7302 71.2039 33.7302C74.2967 33.7302 74.5885 33.6932 74.5885 33.2983C74.5885 32.9909 74.2786 32.7839 73.513 32.5798C72.5622 32.3263 72.4085 32.188 72.1848 31.3855C71.8978 30.3555 71.8297 19.5042 72.11 19.5355C72.2101 19.5466 73.1476 20.5496 74.1942 21.7641C75.2409 22.9786 78.104 26.1678 80.5572 28.8514C84.3964 33.0513 85.1145 33.7302 85.718 33.7302H86.4186L86.4879 25.189C86.5373 19.1245 86.6386 16.5669 86.837 16.3691C86.9907 16.2159 87.4803 16.0164 87.9252 15.9258C88.3967 15.8297 88.7331 15.6146 88.7331 15.4095C88.7331 15.1218 88.1302 15.0459 85.4087 14.991C82.2079 14.9264 82.0843 14.9421 82.0843 15.4126C82.0843 15.7702 82.2423 15.9012 82.6752 15.9012C83.0001 15.9012 83.5711 16.1626 83.9443 16.4824L84.6231 17.0635L84.6991 22.8671C84.7425 26.1438 84.6816 28.6707 84.5604 28.6707C84.4429 28.6707 83.7043 27.9389 82.9199 27.0444C82.1362 26.1498 79.9031 23.6834 77.9575 21.5632C76.0126 19.4429 73.8874 17.0936 73.2356 16.3426L72.0497 14.977L69.5718 14.9573C67.2477 14.9387 67.0933 14.9676 67.0933 15.4194ZM92.4807 15.4194C92.4807 15.7868 92.6423 15.9012 93.1601 15.9012C93.5339 15.9012 94.0506 16.055 94.3087 16.2429C94.7518 16.5655 94.7825 16.9814 94.8537 23.6516C94.9429 31.9806 94.8694 32.4475 93.4387 32.6754C92.7182 32.7904 92.4807 32.94 92.4807 33.2792C92.4807 33.6999 92.7248 33.7302 96.1077 33.7302C99.5731 33.7302 99.7347 33.7088 99.7347 33.2484C99.7347 32.9055 99.5731 32.7665 99.1764 32.7665C98.869 32.7665 98.4071 32.6128 98.1485 32.4249C97.7042 32.1011 97.6758 31.6846 97.6095 24.4838C97.5414 17.1074 97.5534 16.8701 98.0321 16.3928C98.3034 16.1224 98.7978 15.9012 99.13 15.9012C99.5731 15.9012 99.7347 15.7728 99.7347 15.4194C99.7347 14.959 99.5731 14.9375 96.1077 14.9375C92.6423 14.9375 92.4807 14.959 92.4807 15.4194ZM117.799 15.4194C117.877 15.7179 118.128 15.9012 118.459 15.9012C118.753 15.9012 119.231 16.1535 119.522 16.4622C119.818 16.7754 121.471 20.736 123.268 25.4369L126.486 33.8507L127.329 33.9228L128.173 33.9948L130.433 28.0199C131.676 24.7339 132.824 21.7851 132.983 21.467C133.257 20.9225 133.318 21.0055 134.044 22.9127C134.468 24.0258 135.597 26.9693 136.552 29.4537L138.289 33.9712H139.054C139.475 33.9712 139.875 33.8271 139.943 33.651C140.011 33.4752 141.122 30.629 142.412 27.3265C143.702 24.0243 145.131 20.3657 145.587 19.1967C146.627 16.5346 146.835 16.206 147.664 15.9181C148.033 15.7902 148.334 15.5172 148.334 15.3115C148.334 14.9944 147.893 14.9375 145.432 14.9375C142.692 14.9375 142.531 14.9643 142.531 15.4194C142.531 15.7685 142.692 15.9012 143.116 15.9012C144.055 15.9012 144.465 16.1556 144.465 16.7394C144.465 17.2266 139.86 29.7262 139.576 30.0088C139.402 30.1825 135.243 18.5713 135.093 17.4909C134.947 16.4414 135.395 15.9012 136.412 15.9012C136.809 15.9012 136.97 15.7622 136.97 15.4194C136.97 14.9582 136.809 14.9375 133.222 14.9375C129.636 14.9375 129.474 14.9582 129.474 15.4194C129.474 15.6941 129.636 15.9012 129.849 15.9012C130.604 15.9012 131.605 16.6279 131.862 17.3632C132.231 18.4183 131.949 19.488 129.775 25.2728L127.928 30.1871L127.531 29.2481C127.312 28.7319 126.173 25.685 125 22.4777C122.697 16.1769 122.663 15.9012 124.185 15.9012C124.719 15.9012 124.88 15.7897 124.88 15.4194C124.88 14.959 124.719 14.9375 121.276 14.9375C117.791 14.9375 117.676 14.9534 117.799 15.4194ZM166.765 15.5826C166.765 15.5826 166.765 15.9115 166.806 16.0031C166.846 16.0946 167.106 16.1289 167.106 16.1289C167.268 16.1723 167.421 16.2103 167.566 16.2462C168.297 16.4271 168.81 16.5543 169.015 17.034C169.154 17.3581 169.162 18.4849 169.164 24.526C169.166 30.896 169.165 31.6765 168.994 32.0974C168.783 32.6195 168.378 32.8967 167.445 33.1587C167.445 33.1587 167.032 33.2736 166.921 33.3763C166.81 33.4791 166.789 33.7085 166.789 33.7085C166.789 33.7085 166.78 33.9215 166.875 34.0237C166.97 34.126 167.224 34.0772 167.224 34.0772L169.644 34.0837L173.657 34.116C173.657 34.116 173.821 34.1377 173.906 34.0292C173.991 33.9207 173.97 33.7079 173.97 33.7079C173.97 33.7079 173.97 33.4804 173.864 33.3779C173.758 33.2754 173.348 33.1793 173.348 33.1793C172.442 32.9562 171.977 32.6656 171.771 32.1936C171.618 31.8428 171.602 30.8958 171.579 28.9235V26.0317C171.68 26.0887 171.772 26.1532 171.869 26.2214L171.87 26.2216L171.871 26.2221C172.333 26.5458 172.912 26.9512 175.076 27.0138C177.698 27.0896 179.275 25.9232 180.213 24.5683C181.151 23.2134 181.515 21.0849 180.827 18.8174C180.139 16.5499 178.12 15.1777 175.281 15.0358C173.801 14.9619 171.648 15.0349 170.445 15.0895H170.445L170.298 15.0961L170.108 15.1046C169.015 15.1523 167.705 15.2568 167.052 15.3189L167.05 15.3191C166.873 15.336 166.856 15.3376 166.806 15.4007C166.756 15.464 166.765 15.5826 166.765 15.5826ZM177.419 24.4651C178.474 23.4737 178.491 21.923 178.491 20.9323C178.387 19.379 177.762 16.3917 174.216 16.3917C173.387 16.3491 171.691 16.4922 171.645 17.642C171.593 17.8451 171.57 19.266 171.583 21.4466L171.604 24.9269L171.965 25.117L171.985 25.1273C172.18 25.2307 172.434 25.3648 172.879 25.4518C174.288 25.7278 176.364 25.4564 177.419 24.4651ZM155.236 15.2381C155.499 15.1386 155.672 15.0721 155.672 15.0721C155.672 15.0721 156.065 14.9108 156.191 15.0721C156.23 15.1218 156.373 15.4889 156.725 16.3987L156.732 16.4174L156.811 16.6214L156.958 16.9995C157.484 18.3537 158.239 20.2974 158.636 21.319C159.033 22.3405 159.819 24.362 160.382 25.8112C160.946 27.2603 161.669 29.1194 161.989 29.9425C162.309 30.7655 162.719 31.6214 162.833 31.7775C162.889 31.8539 162.947 31.9489 163.01 32.0531V32.0538C163.258 32.4637 163.589 33.0138 164.256 33.1213C164.256 33.1213 164.778 33.2077 164.855 33.2895C164.933 33.3713 164.95 33.5199 164.95 33.5199V33.7991C164.95 33.7991 164.941 33.8705 164.898 33.9312C164.855 33.9918 164.697 33.975 164.697 33.975L160.674 33.9753L157.811 33.9958C157.811 33.9958 157.711 34.008 157.652 33.9593C157.593 33.9105 157.563 33.7873 157.563 33.7873V33.577C157.563 33.577 157.538 33.4188 157.652 33.2813C157.766 33.1437 158.226 33.1278 158.226 33.1278C159.093 33.0526 159.437 32.3143 159.614 31.9343L159.615 31.9322C159.628 31.9046 159.64 31.8789 159.651 31.8556C159.839 31.4628 159.771 31.2068 158.919 29.1068C158.356 27.7208 158.164 27.3315 158.028 27.2969C157.932 27.2727 156.434 27.2637 154.7 27.277L151.546 27.301L151.358 27.8193C150.812 29.3186 150.328 30.8081 150.255 31.2107C150.106 32.03 150.313 32.9414 151.519 33.0998C151.519 33.0998 151.965 33.1612 152.084 33.2511C152.204 33.3411 152.245 33.5715 152.245 33.5715V33.7838C152.245 33.7838 152.223 33.8849 152.141 33.9529C152.059 34.0209 151.846 33.9962 151.846 33.9962H148.836L145.924 34.0293C145.924 34.0293 145.8 34.0264 145.708 33.9777C145.616 33.929 145.601 33.8312 145.601 33.8312V33.6294C145.601 33.6294 145.586 33.4984 145.748 33.3382C145.91 33.1781 146.348 33.1352 146.348 33.1352C147.143 33.007 147.594 32.1598 147.854 31.6723C147.873 31.6363 147.891 31.6023 147.909 31.5706C148.011 31.3807 148.475 30.2729 148.939 29.1088C149.403 27.9447 149.924 26.6424 150.096 26.2147C150.683 24.7607 151.24 23.3677 152.084 21.2474C152.547 20.0833 153.233 18.365 153.608 17.429L154.29 15.7271L155.236 15.2381ZM154.988 19.375C155.134 19.7431 155.357 20.297 155.485 20.6059C155.612 20.9147 155.967 21.7894 156.276 22.5496C156.583 23.3099 156.961 24.235 157.115 24.6055C157.27 24.9761 157.396 25.2968 157.396 25.3182C157.396 25.3397 156.238 25.3573 154.821 25.3573C153.195 25.3573 152.245 25.3261 152.245 25.2726C152.245 25.226 152.3 25.0414 152.366 24.8623C152.472 24.5773 153.001 23.0649 154.168 19.7062C154.348 19.1876 154.515 18.7302 154.539 18.6897C154.621 18.5514 154.722 18.7055 154.988 19.375Z" fill="white"/>
<path fill-rule="evenodd" clip-rule="evenodd" d="M15.3882 17.6858C15.3212 17.9444 15.2042 18.1873 15.0438 18.4006C14.7454 18.7897 14.3505 19.0931 13.8985 19.2805C13.492 19.4564 13.0616 19.5702 12.6215 19.6179C12.531 19.6294 12.4373 19.6366 12.3465 19.6434L12.3315 19.6446C12.0528 19.6553 11.7848 19.7552 11.5668 19.9299C11.3488 20.1047 11.1921 20.3449 11.1198 20.6155C11.0867 20.7502 11.0621 20.8867 11.0461 21.0245C11.0208 21.2323 11.0078 21.4449 10.9936 21.675C10.9835 21.8401 10.9728 22.0142 10.9567 22.2018C10.862 22.9659 10.642 23.709 10.3055 24.4009C10.2367 24.5463 10.1667 24.6873 10.0978 24.8258C9.72889 25.568 9.39549 26.2385 9.49123 27.1365C9.56611 27.8282 9.91886 28.2919 10.3877 28.77C10.6103 28.9988 10.9055 29.1942 11.212 29.3971C12.0696 29.9649 13.0152 30.5909 12.7036 32.1682C12.4487 33.4462 10.3393 34.7873 7.37452 35.2557C7.66216 35.212 7.0287 34.1262 6.95834 34.0056L6.95412 33.9984C6.87237 33.8698 6.78863 33.7431 6.70507 33.6166C6.4637 33.2514 6.22347 32.8879 6.03593 32.485C5.5406 31.4328 5.31104 30.2155 5.51402 29.0625C5.69788 28.019 6.38462 27.1854 7.04582 26.3828C7.15362 26.252 7.26076 26.1219 7.36488 25.992C8.24926 24.8888 9.17712 23.4433 9.38247 22.0112C9.39977 21.8868 9.41527 21.7512 9.43154 21.6084C9.46066 21.353 9.49238 21.0747 9.54193 20.7976C9.61567 20.3189 9.76494 19.8551 9.98416 19.4237C10.1337 19.1407 10.3307 18.8858 10.5664 18.67C10.6894 18.5555 10.7705 18.4028 10.7967 18.2364C10.823 18.0701 10.793 17.8997 10.7114 17.7525L5.98519 9.21328L12.7737 17.6287C12.851 17.7262 12.9488 17.8055 13.06 17.8608C13.1712 17.9161 13.2932 17.9462 13.4172 17.9488C13.5412 17.9515 13.6644 17.9267 13.7778 17.8762C13.8913 17.8257 13.9923 17.7508 14.0737 17.6567C14.1597 17.5559 14.2085 17.4285 14.2117 17.2958C14.215 17.1631 14.1727 17.0334 14.0918 16.9284C13.7762 16.5233 13.4477 16.1126 13.1208 15.7038L13.1202 15.7031C12.9881 15.5378 12.8561 15.3729 12.7254 15.2087L11.0171 13.0848L7.58837 8.84431L0.710449 0.375488L8.02818 8.46448L11.6779 12.5181L13.4986 14.5497C13.6659 14.7389 13.8332 14.9264 14.0005 15.114C14.4373 15.6037 14.874 16.0934 15.3108 16.6129L15.4099 16.7343L15.4316 16.9224C15.4611 17.1775 15.4464 17.4357 15.3882 17.6858ZM32.8364 20.5399L32.8436 20.5509C32.8424 19.6455 32.2843 18.1515 31.1546 16.7146L31.1281 16.6794C30.7801 16.2473 30.4009 15.8417 29.9936 15.4657C29.9175 15.3917 29.8354 15.3189 29.752 15.246C29.2301 14.7888 28.6596 14.3908 28.0509 14.0591L28.0074 14.0372C26.0949 12.9911 23.6062 12.4522 20.5375 13.059C20.1253 12.5564 19.6814 12.0809 19.2085 11.6354C18.4843 10.9421 17.6318 10.3983 16.6992 10.0346C15.775 9.69481 14.7853 9.57351 13.8069 9.68022C14.75 9.76553 15.6687 10.0291 16.5144 10.457C17.3312 10.8966 18.0667 11.4737 18.6891 12.1634C19.3198 12.8673 19.9126 13.6047 20.465 14.3722C20.5111 14.4323 20.5571 14.4925 20.6032 14.5528L20.6037 14.5535C21.1442 15.2607 21.6944 15.9805 22.3799 16.6211C22.7573 16.9778 23.1783 17.2849 23.6328 17.535C23.7536 17.5969 23.8756 17.6552 23.9952 17.7061C24.1148 17.7571 24.2272 17.8044 24.348 17.8481C24.5812 17.9391 24.8228 18.0144 25.0644 18.0836C26.0309 18.3602 27.0204 18.4598 27.9869 18.5132C28.1215 18.5203 28.2557 18.5269 28.3895 18.5336C28.7346 18.5507 29.0768 18.5676 29.4137 18.5921C29.8754 18.6196 30.3335 18.692 30.7813 18.8081C31.4541 18.9843 32.0465 19.387 32.4594 19.9489C32.5998 20.1361 32.7258 20.3336 32.8364 20.5399ZM18.062 20.653C18.8437 22.0354 17.0955 22.4638 16.2751 22.5426C15.032 22.664 14.7746 21.9443 15.0175 21.0402C15.0971 20.7165 15.274 20.4252 15.524 20.2059C15.7741 19.9867 16.0853 19.85 16.4153 19.8144C16.7405 19.7845 17.0675 19.8472 17.3588 19.9956C17.6501 20.1439 17.8939 20.3718 18.062 20.653ZM28.8173 24.408C25.7093 23.141 22.458 21.8158 22.9421 18.0962C23.9798 19.2092 25.6087 19.4426 27.3805 19.6965C28.9876 19.9268 30.7121 20.1739 32.2194 21.1096C35.7762 23.316 35.2567 27.6026 34.0486 29.1804C34.1575 26.5848 31.5424 25.5188 28.8173 24.408ZM29.9983 15.4639C29.9497 15.4188 29.9003 15.3742 29.851 15.3297C29.8194 15.3011 29.7878 15.2727 29.7566 15.2442C29.7807 15.2662 29.8048 15.2885 29.8288 15.3109C29.8856 15.3636 29.9422 15.4161 29.9983 15.4639ZM16.0591 11.6055C15.5444 11.0083 14.7458 10.6953 13.963 10.5811C13.9337 10.777 13.9151 10.9743 13.9074 11.1722C13.8724 12.8021 14.4486 14.5923 15.5637 15.8363C15.9205 16.2384 16.3507 16.568 16.8311 16.8072C17.1089 16.9431 17.8459 17.2805 18.1189 16.9771C18.1397 16.9493 18.1528 16.9164 18.1568 16.8819C18.1609 16.8473 18.1557 16.8124 18.1419 16.7805C18.0967 16.6505 18.0092 16.5326 17.9225 16.4156C17.861 16.3326 17.7997 16.25 17.7541 16.1639C17.7079 16.0771 17.6585 15.9924 17.6092 15.9078C17.5165 15.7489 17.424 15.5902 17.353 15.4176C17.1658 14.9656 17.0683 14.4851 16.9711 14.006C16.9516 13.91 16.9322 13.814 16.912 13.7184C16.7634 12.9793 16.5738 12.2026 16.0591 11.6055ZM27.0557 24.6079C26.2573 26.8461 27.5451 28.7364 28.8251 30.6157C30.257 32.7178 31.6794 34.806 30.1619 37.3512C33.1109 36.1279 34.5112 32.4323 33.2873 29.5001C32.5161 27.6455 30.6575 26.6401 28.9322 25.7069C28.2629 25.3449 27.6136 24.9936 27.0557 24.6079ZM18.409 29.9536C17.8746 30.1727 17.3707 30.4602 16.9097 30.8093C17.9578 30.4274 19.0579 30.2093 20.1717 30.1623C20.3736 30.1504 20.5768 30.1409 20.7817 30.1315C21.1359 30.1151 21.4959 30.0984 21.8631 30.0677C22.4651 30.0267 23.0589 29.9042 23.6282 29.7036C24.2249 29.4939 24.7678 29.154 25.2181 28.7084C25.673 28.2485 25.9921 27.6708 26.14 27.0396C26.27 26.4434 26.2517 25.8242 26.0867 25.2368C25.9217 24.6493 25.6151 24.1117 25.194 23.6718C25.3972 24.1895 25.5222 24.7347 25.5649 25.2896C25.6017 25.8061 25.5318 26.3246 25.3595 26.8127C25.1913 27.2753 24.9164 27.6911 24.5573 28.0264C24.1863 28.3648 23.7568 28.6321 23.29 28.8152C22.6412 29.0777 21.9074 29.1852 21.1433 29.2971C20.7947 29.3481 20.4396 29.4001 20.0835 29.4682C19.5107 29.5736 18.9497 29.7362 18.409 29.9536ZM27.6705 39.1932L27.6237 39.231C27.4886 39.3402 27.3513 39.4512 27.2035 39.5508C27.0151 39.6756 26.8176 39.7859 26.6127 39.881C26.1862 40.09 25.7172 40.1968 25.2427 40.1929C23.9572 40.1686 23.0487 39.2074 22.5171 38.1212C22.3777 37.8364 22.255 37.5429 22.1322 37.2494C21.9357 36.7797 21.7392 36.3098 21.4745 35.8759C20.8596 34.8674 19.8073 34.0554 18.5749 34.2059C18.0724 34.269 17.6012 34.496 17.3221 34.9341C16.5876 36.0786 17.6423 37.6818 18.987 37.4549C19.1013 37.4374 19.2132 37.4064 19.3204 37.3626C19.4272 37.3169 19.5269 37.256 19.6164 37.1818C19.8042 37.0247 19.9458 36.819 20.0259 36.5871C20.1143 36.3452 20.1339 36.0835 20.0827 35.831C20.0276 35.5672 19.8724 35.3352 19.6502 35.1841C19.9086 35.3057 20.11 35.5232 20.212 35.7909C20.3178 36.0665 20.345 36.3661 20.2905 36.6563C20.2377 36.9586 20.105 37.2411 19.9063 37.4743C19.8008 37.5942 19.6787 37.6984 19.5439 37.7837C19.4103 37.8681 19.2671 37.9362 19.1174 37.9864C18.814 38.0906 18.4909 38.1243 18.1726 38.0848C17.7258 38.0208 17.3043 37.8372 16.9524 37.5532C16.89 37.5035 16.8299 37.4516 16.7716 37.3979C16.5285 37.188 16.308 36.9528 16.114 36.6961C16.0289 36.6019 15.9423 36.509 15.8518 36.4196C15.4211 35.9656 14.9129 35.5928 14.3513 35.3189C13.9641 35.148 13.5587 35.0218 13.1432 34.9426C12.9342 34.8989 12.7228 34.8674 12.5113 34.8406C12.4884 34.8384 12.4443 34.8307 12.3894 34.8211C12.2129 34.7903 11.9252 34.7401 11.8746 34.7873C12.5281 34.1829 13.2405 33.6462 14.001 33.1853C14.7818 32.7198 15.6201 32.3594 16.4945 32.1136C17.4011 31.8573 18.3493 31.7843 19.2841 31.8988C19.7654 31.9569 20.2367 32.0793 20.6856 32.2628C21.1559 32.4516 21.5901 32.721 21.9686 33.059C22.3433 33.4136 22.6461 33.8377 22.8602 34.3079C23.0536 34.748 23.1978 35.2084 23.2903 35.6805C23.3399 35.9345 23.3773 36.2136 23.4159 36.5025C23.5921 37.819 23.7955 39.3383 25.3043 39.603C25.4002 39.6217 25.497 39.6355 25.5943 39.6443L25.8951 39.6516C26.1019 39.6367 26.3074 39.6071 26.51 39.563C26.9298 39.4638 27.3389 39.3235 27.7314 39.1442L27.709 39.1623L27.6705 39.1932ZM16.1806 36.7702C16.2276 36.8245 16.2753 36.8781 16.3237 36.931C16.3025 36.9072 16.2813 36.8834 16.2602 36.8596C16.2337 36.8298 16.2071 36.7999 16.1806 36.7702Z" fill="#FF007A"/>
</svg>
