<svg width="138" height="32" viewBox="0 0 138 32" fill="none" xmlns="http://www.w3.org/2000/svg">
<path d="M23.0887 2.55342C21.0099 0.837902 18.1641 -0.00976562 14.5313 -0.00976562H5.48949V1.26173H14.3698C17.4578 1.26173 20.243 1.88739 21.9585 3.38091C23.674 4.87442 24.9455 7.05414 24.9455 9.7586C24.9455 12.3823 23.8153 14.2997 22.0594 15.773C20.3035 17.2463 17.1147 17.8922 13.946 17.8922H3.75378V19.1637H14.0267C17.8412 19.1637 20.8282 18.3362 22.9878 16.6812C25.1271 15.0263 26.217 12.6851 26.217 9.67787C26.217 6.61012 25.1675 4.24876 23.0887 2.55342Z" fill="white"/>
<path d="M22.3219 4.3697C21.0302 3.38075 19.5569 2.59363 15.3589 2.59363H8.37573V3.82477C8.37573 3.82477 11.504 3.7844 15.1974 3.82477C18.7698 3.86513 20.0816 4.26878 21.2926 5.15681C22.8265 6.28704 23.7952 7.69982 23.7952 9.65753C23.7952 11.5547 22.8265 12.8867 21.2724 14.0372C19.6982 15.2077 17.2762 15.2077 16.2873 15.2481C15.924 15.2481 11.1004 15.2481 11.1004 15.2481V16.4792C11.1004 16.4792 13.4819 16.5196 14.9754 16.4792C18.3661 16.3985 20.3844 16.1967 22.2613 14.8041C24.0172 13.4922 24.9456 11.7767 24.9456 9.59698C24.9456 6.73106 23.4925 5.29809 22.3219 4.3697Z" fill="white"/>
<path d="M21.6963 6.00461C20.7275 5.39913 19.8798 4.99548 15.8635 4.99548H10.838V5.80279H15.7222C19.2744 5.80279 20.6064 6.42845 21.0302 6.69082C21.8375 7.1752 22.887 7.98251 22.887 9.59711C22.887 10.6264 22.2816 11.9383 21.3733 12.4429C20.5459 12.9071 19.0322 13.3309 16.3883 13.3309H0V14.1382H16.4286C19.6376 14.1382 20.7275 13.7749 21.8577 13.1492C22.988 12.5236 23.7549 11.2319 23.7549 9.59711C23.7549 7.74031 22.7256 6.65045 21.6963 6.00461Z" fill="white"/>
<path d="M24.8851 14.9455C22.8063 13.23 19.9605 12.3823 16.3277 12.3823H10.2729V13.6538H16.146C19.234 13.6538 22.0192 14.2997 23.7347 15.773C25.4502 17.2463 26.7419 19.4462 26.7419 22.1507C26.7419 24.7744 25.6318 26.6918 23.8558 28.1651C22.0797 29.6384 18.911 30.2843 15.7424 30.2843H5.55017V31.5558H15.8231C19.6376 31.5558 22.6246 30.7283 24.7842 29.0733C26.9437 27.4183 28.0134 25.0772 28.0134 22.07C27.9932 19.0224 26.9639 16.661 24.8851 14.9455Z" fill="white"/>
<path d="M24.1181 16.7619C22.8264 15.7931 21.3531 14.9858 17.1551 14.9858H7.66931V16.217C7.66931 16.217 13.3003 16.1766 16.9937 16.217C20.566 16.2573 21.8778 16.661 23.0888 17.549C24.6227 18.6793 25.5914 20.092 25.5914 22.0497C25.5914 23.9469 24.6227 25.279 23.0686 26.4294C21.4944 27.6 19.0725 27.6 18.0835 27.6403C17.7202 27.6403 12.8966 27.6403 12.8966 27.6403V28.8715C12.8966 28.8715 15.2983 28.9118 16.7717 28.8715C20.1623 28.7907 22.1806 28.5889 24.0576 27.1963C25.8134 25.8844 26.7418 24.1689 26.7418 21.9892C26.7418 19.1435 25.3089 17.6903 24.1181 16.7619Z" fill="white"/>
<path d="M9.68774 20.9599H18.5883V20.2737H9.68774V20.9599Z" fill="white"/>
<path d="M13.3608 23.3617H18.5276V22.7764H13.3608V23.3617Z" fill="white"/>
<path d="M5.55017 20.9599H8.17391V20.2737H5.55017V20.9599Z" fill="white"/>
<path d="M3.89526 23.4021H11.9077V22.7159H3.89526V23.4021Z" fill="white"/>
<path d="M5.87317 5.74224H9.00147V5.17712H5.87317V5.74224Z" fill="white"/>
<path d="M3.71362 10.3438H10.8381V9.698H3.71362V10.3438Z" fill="white"/>
<path d="M3.89526 28.7909H11.4234V27.9836H3.89526V28.7909Z" fill="white"/>
<path d="M2.03845 31.4751H3.91543V30.2843H2.03845V31.4751Z" fill="white"/>
<path d="M6.7207 8.32565H18.5477V7.67981H6.7207V8.32565Z" fill="white"/>
<path d="M12.6344 10.3438H18.3259V9.698H12.6344V10.3438Z" fill="white"/>
<path d="M23.4925 18.5178C22.5238 17.9325 21.6761 17.5288 17.6598 17.5288H11.2821V18.3159H17.5387C21.0908 18.3159 22.443 18.9214 22.8467 19.1636C23.6338 19.6278 24.7035 20.3947 24.7035 21.969C24.7035 22.9781 24.098 24.2294 23.1898 24.7138C22.3623 25.1578 20.8486 25.5615 18.2047 25.5615H1.79626V26.3486H18.2249C21.4339 26.3486 22.5238 26.0055 23.654 25.4C24.7842 24.7945 25.531 23.5634 25.531 21.969C25.5512 20.2131 24.5218 19.1636 23.4925 18.5178Z" fill="white"/>
<path d="M40.3247 16.7621V23.9673H44.2604C45.9557 23.9673 47.2877 23.6443 48.2161 22.9985C49.1244 22.4132 49.6491 21.4041 49.6289 20.3142C49.6289 17.9528 47.6308 16.7621 43.6549 16.7621H40.3247ZM40.3247 8.18448V14.6429H43.2916C44.886 14.6429 46.1172 14.3402 47.0254 13.7145C47.9134 13.1494 48.4381 12.1403 48.3978 11.0908C48.3978 9.15324 46.8235 8.1643 43.6549 8.1643L40.3247 8.18448ZM37.4185 26.0864V6.06531H44.4622C46.6015 6.06531 48.2969 6.48914 49.5482 7.33681C50.7995 8.18448 51.4252 9.29452 51.4252 10.6468C51.4453 11.7366 51.0417 12.8063 50.2949 13.6136C49.528 14.4613 48.4987 15.0466 47.1666 15.4098V15.4704C48.8418 15.6318 50.1739 16.1364 51.1628 17.0043C52.1517 17.8317 52.6967 19.0629 52.6563 20.3546C52.6563 22.0701 51.8894 23.4425 50.3757 24.5122C48.862 25.5819 46.9446 26.1066 44.6236 26.1066H37.4185V26.0864Z" fill="white"/>
<path d="M55.8856 26.0863H58.7111V11.797H55.8856V26.0863ZM57.3185 8.14395C56.8543 8.16413 56.3902 8.00267 56.0269 7.72011C55.6838 7.47792 55.4819 7.07427 55.5021 6.67062C55.5021 6.24678 55.7039 5.84313 56.0269 5.60094C56.3902 5.31838 56.8543 5.15692 57.3185 5.17711C57.8029 5.15692 58.2671 5.31838 58.6304 5.60094C59.2157 6.02477 59.3368 6.83208 58.9332 7.41737C58.8524 7.53847 58.7515 7.63938 58.6304 7.72011C58.2671 8.02285 57.8029 8.16413 57.3185 8.14395Z" fill="white"/>
<path d="M71.2042 25.945C70.5381 26.2477 69.6501 26.389 68.5602 26.389C65.4723 26.389 63.9183 24.9964 63.9183 22.191V13.7345H60.8909V11.7768H63.9183V8.28521L66.7438 7.53845V11.7768H71.184V13.7345H66.7438V21.7874C66.7438 22.7359 66.9456 23.4221 67.3493 23.846C67.7529 24.2698 68.419 24.4515 69.3474 24.4515C69.9932 24.4716 70.6391 24.3102 71.184 23.9671L71.2042 25.945Z" fill="white"/>
<path d="M96.8966 26.0862H94.2527V13.7345C94.2728 12.5437 94.3334 11.3328 94.4747 10.142H94.4141C94.2526 10.7475 94.0105 11.353 93.7279 11.9181L85.9576 26.0661H84.6457L76.8956 12.019C76.5929 11.4135 76.3709 10.7878 76.2094 10.1218H76.1489C76.2498 11.3126 76.2902 12.5235 76.27 13.7345V26.0661H73.7068V7.65955H77.2387L84.2219 20.4957C84.6256 21.2021 84.9888 21.9488 85.2714 22.7158H85.3723C85.8365 21.7066 86.1998 20.9599 86.4622 20.4553L93.5866 7.65955H96.9168V26.0862" fill="white"/>
<path d="M111.267 18.8407L107.008 19.3251C105.696 19.4663 104.707 19.7287 104.041 20.1122C103.375 20.4957 103.032 21.1617 103.032 22.1103C103.032 22.7965 103.375 23.4423 103.96 23.8258C104.566 24.2698 105.393 24.4918 106.423 24.4918C107.835 24.4918 108.986 24.0882 109.894 23.301C110.782 22.5543 111.287 21.4442 111.267 20.2736V18.8407ZM114.092 26.0862H111.267V23.846H111.206C109.975 25.5615 108.158 26.4092 105.777 26.4092C104.021 26.4092 102.649 26.0257 101.639 25.2789C100.671 24.5927 100.126 23.4625 100.146 22.2717C100.146 19.6076 102.083 18.0536 105.979 17.6095L111.267 17.0041C111.267 14.5822 110.056 13.3712 107.634 13.3712C105.575 13.351 103.577 13.9565 101.882 15.1271V12.7859C103.617 11.8979 105.615 11.4539 107.876 11.4539C112.033 11.4539 114.092 13.2299 114.092 16.7821V26.0862Z" fill="white"/>
<path d="M127.211 14.0978C126.706 13.7951 126 13.6336 125.071 13.6336C123.901 13.6134 122.791 14.118 122.044 15.0262C121.237 15.9546 120.833 17.2059 120.833 18.8004V26.0863H118.008V11.797H120.833V14.7437H120.894C121.257 13.7951 121.903 12.9676 122.75 12.3823C123.558 11.8172 124.527 11.5346 125.536 11.5346C126.101 11.5144 126.686 11.575 127.231 11.7365L127.211 14.0978Z" fill="white"/>
<path d="M137.06 25.945C136.394 26.2477 135.506 26.389 134.416 26.389C131.328 26.389 129.774 24.9964 129.774 22.191V13.7345H126.747V11.7768H129.774V8.28521L132.6 7.53845V11.7768H137.04V13.7345H132.6V21.7874C132.6 22.7359 132.801 23.4221 133.205 23.846C133.609 24.2698 134.275 24.4515 135.203 24.4515C135.849 24.4716 136.495 24.3102 137.04 23.9671L137.06 25.945Z" fill="white"/>
</svg>
