<svg width="116" height="28" viewBox="0 0 116 28" fill="none" xmlns="http://www.w3.org/2000/svg">
<path fill-rule="evenodd" clip-rule="evenodd" d="M0.041748 4.55577V14.2984C0.0545338 14.3072 0.0656915 14.315 0.0758642 14.3221L0.0759722 14.3222L0.076018 14.3222L0.0760545 14.3222L0.0761134 14.3223C0.0952594 14.3357 0.110924 14.3467 0.127415 14.3568C0.840189 14.7906 1.55311 15.2243 2.26606 15.6579L2.26807 15.6591L2.27342 15.6624C4.14034 16.798 6.00742 17.9337 7.87247 19.0724C7.98734 19.1425 8.06717 19.1327 8.1762 19.0724C8.96643 18.6359 9.75948 18.2023 10.5518 17.7691L10.5519 17.769L10.5521 17.7689L10.5523 17.7688L10.5525 17.7687L10.5527 17.7686L10.5529 17.7685L10.5531 17.7684L10.5533 17.7683L10.5535 17.7682L10.5536 17.7681L10.974 17.5382C11.1336 17.4525 11.2933 17.3649 11.451 17.2773C11.4219 17.2221 11.3831 17.2007 11.347 17.1808C11.3373 17.1754 11.3277 17.1702 11.3186 17.1644L9.44482 16.0249C7.43693 14.8038 5.4285 13.5823 3.4178 12.3631C3.28346 12.2814 3.2231 12.1976 3.2231 12.0321C3.22699 10.2779 3.22699 8.52565 3.22699 6.77143C3.22699 6.75738 3.22647 6.74326 3.22594 6.72898C3.22397 6.67597 3.22192 6.62098 3.24646 6.56115C4.04941 6.12301 4.85372 5.6835 5.65852 5.24373L5.66004 5.2429L5.6614 5.24216L5.66146 5.24213L5.66152 5.24209L5.66159 5.24206L5.66165 5.24202L5.66171 5.24199L5.66177 5.24196L5.66184 5.24192L5.6619 5.24189L5.66196 5.24185L5.66203 5.24182C6.5226 4.77157 7.38373 4.30101 8.24434 3.8315C9.79818 4.7739 11.3467 5.71393 12.8918 6.65192L12.9061 6.66059L12.9081 6.66181C14.1571 7.42001 15.4038 8.17687 16.6494 8.93256C16.6913 8.89388 16.6892 8.86187 16.6872 8.83212L16.6867 8.82429C16.6865 8.82077 16.6864 8.81728 16.6864 8.8138C16.6871 8.40035 16.6871 7.98711 16.6871 7.57402C16.6871 6.74797 16.6871 5.9225 16.6923 5.09703C16.6923 4.9549 16.6222 4.90233 16.5229 4.84198L15.644 4.30959L15.6426 4.30876L15.6419 4.30832C13.3127 2.89741 10.9826 1.48598 8.6571 0.0699481C8.51108 -0.0196126 8.40789 -0.0235066 8.25602 0.0602132C6.22164 1.17843 4.18259 2.29196 2.14443 3.40501L2.14406 3.40522L1.4241 3.7984C0.960719 4.05151 0.499286 4.30461 0.041748 4.55577ZM0.043578 18.393V22.3687H0.045525L0.0653529 22.3833C0.0783598 22.3929 0.0901735 22.4017 0.101987 22.4096C2.75182 24.0275 5.40164 25.6454 8.04758 27.2673C8.17219 27.3432 8.25591 27.3218 8.37078 27.2595C10.2076 26.2534 12.0465 25.2505 13.8853 24.2476L13.8964 24.2416L13.9027 24.2381C14.5918 23.8623 15.2809 23.4864 15.9698 23.1105C16.118 23.0292 16.2654 22.948 16.4112 22.8676L16.4115 22.8675L16.6843 22.7172L16.6859 22.6816C16.6872 22.6533 16.6882 22.6312 16.6882 22.6101L16.6881 20.7196V20.7195V20.7193V20.7191V20.7189V20.7187V20.7185V20.7183V20.7181V20.7179V20.7178C16.6878 18.199 16.6875 15.6812 16.6921 13.1634C16.6921 13.0174 16.6259 12.957 16.5169 12.8908C15.1968 12.0925 13.8766 11.2924 12.5564 10.4924C11.8965 10.0925 11.2366 9.69253 10.5767 9.29282C10.0573 8.97772 9.53657 8.66388 9.01463 8.34928L8.62583 8.1149C7.62629 8.66363 6.63115 9.2109 5.63405 9.75924L5.1758 10.0112C5.23508 10.075 5.30114 10.1128 5.36538 10.1495L5.36543 10.1495C5.38556 10.161 5.4055 10.1725 5.42501 10.1845C8.02422 11.7694 10.6234 13.3542 13.2265 14.9332C13.3823 15.0286 13.429 15.1298 13.429 15.3051C13.4251 17.0437 13.4251 18.7824 13.4251 20.521C13.4251 20.5383 13.426 20.5557 13.4268 20.5731C13.4296 20.63 13.4325 20.6877 13.4056 20.7488C12.6293 21.1728 11.8517 21.5973 11.0744 22.0216C10.185 22.5071 9.29596 22.9923 8.40972 23.4765C6.46263 22.2942 4.52498 21.1165 2.58428 19.937L0.043578 18.393ZM38.8021 21.4205C36.8376 22.2382 34.8731 22.9469 32.7529 23.0773C28.4364 23.3421 24.3536 20.4528 23.3782 16.3389C22.7143 13.5352 22.9985 10.8056 24.6437 8.35434C26.0592 6.24577 28.123 5.07758 30.58 4.59473C33.3642 4.04764 35.9537 4.75439 38.4809 5.87584V8.65417C38.3514 8.70429 38.2657 8.63693 38.1818 8.57099C38.1484 8.54471 38.1153 8.51867 38.0798 8.50036C36.2808 7.57944 34.3747 7.03234 32.3596 6.87659C31.6119 6.81818 30.8799 6.94084 30.2023 7.25625C27.8426 8.35239 26.2675 10.1261 25.736 12.7058C25.0448 16.0566 27.4357 19.6526 30.7942 20.3788C32.3713 20.7196 33.9211 20.4937 35.4553 20.0965C36.528 19.8181 37.5444 19.3917 38.5178 18.8602C38.5354 18.8506 38.5523 18.8392 38.5694 18.8277C38.632 18.7855 38.697 18.7417 38.8041 18.7784V21.4185L38.8021 21.4205ZM90.8836 22.5768C94.1681 22.0842 96.0762 19.2592 95.9924 16.771C96.0333 15.7137 95.7588 14.7344 95.2273 13.8291C93.8722 11.518 91.2282 10.3537 88.4771 10.9437C84.3262 11.8334 82.3344 16.3699 84.5968 19.8491C86.059 22.0979 88.2513 22.9721 90.8836 22.5768ZM93.7885 16.7242C93.7924 18.8328 92.0323 20.5364 89.8458 20.5403C87.6691 20.5442 85.8838 18.8386 85.8662 16.7379C85.8507 14.6741 87.6711 12.9159 89.8303 12.9159C92.0167 12.9159 93.7865 14.6176 93.7885 16.7242ZM45.558 10.79C48.2428 10.7744 50.7778 12.6708 51.4222 15.2875C52.2088 18.4825 50.2404 21.7028 47.0338 22.4738C44.31 23.128 41.5277 22.061 40.1356 19.7967C38.0193 16.3545 39.8748 11.9017 44.0257 10.9399C44.4813 10.8348 44.9466 10.8075 45.558 10.7881V10.79ZM49.3682 16.7361C49.3701 14.6236 47.6101 12.9161 45.4314 12.9161C43.2586 12.9161 41.4635 14.6411 41.4674 16.7263C41.4713 18.8291 43.2391 20.5346 45.4217 20.5404C47.6101 20.5482 49.3643 18.8563 49.3662 16.7361H49.3682ZM115.46 19.8637C115.461 19.6982 115.462 19.5324 115.462 19.3663C115.317 19.3099 115.248 19.3656 115.187 19.4151C115.174 19.4254 115.161 19.4355 115.149 19.4442C114.156 20.1256 113.06 20.5248 111.868 20.6961C109.935 20.9765 108.42 20.0808 107.762 18.239C107.614 17.8263 107.474 17.4057 107.567 16.9014H115.686C115.577 15.0616 115.295 13.3502 114.092 11.923C113.463 11.1793 112.647 10.751 111.695 10.6205C111.218 10.5563 110.721 10.5582 110.24 10.6049C108.003 10.8191 106.436 11.9464 105.679 14.092C104.986 16.0506 105.135 17.9898 105.963 19.8725C106.491 21.0738 107.365 21.9947 108.611 22.4386C110.916 23.2583 113.114 22.9468 115.176 21.6384C115.398 21.4982 115.478 21.325 115.468 21.0621C115.454 20.6639 115.457 20.2646 115.46 19.8637ZM112.929 13.979C113.174 14.4638 113.322 14.9778 113.35 15.5502H107.643C107.869 13.7298 109.495 12.1236 111.399 12.659C112.121 12.8615 112.602 13.3307 112.929 13.979ZM56.942 10.8172H56.9439V22.6237H59.2297V22.0532L59.2295 20.5485C59.2292 18.5438 59.2289 16.5383 59.2336 14.534C59.2336 14.4932 59.2312 14.452 59.2288 14.4107C59.2191 14.2452 59.2094 14.0785 59.3543 13.9305C60.0182 13.2549 60.7542 12.6902 61.6945 12.478C62.8043 12.2288 63.7486 12.8109 64.0718 13.9071C64.1984 14.3374 64.2334 14.7813 64.2334 15.2291C64.2315 17.5031 64.2295 19.7753 64.2334 22.0493C64.2334 22.0953 64.2307 22.1416 64.228 22.1882L64.228 22.1884C64.2194 22.3348 64.2106 22.4833 64.286 22.6295H66.5016L66.5055 22.6166L66.5104 22.601C66.5162 22.5831 66.5217 22.5678 66.5266 22.5541C66.5383 22.5213 66.5464 22.4985 66.5464 22.4757C66.5474 21.7661 66.5496 21.0564 66.5517 20.3468C66.558 18.2976 66.5642 16.2484 66.5425 14.1991C66.525 12.6318 65.2166 11.0431 63.6902 10.6946C62.154 10.3422 60.8184 10.7666 59.6755 11.8414C59.6384 11.8763 59.6052 11.9169 59.5711 11.9586C59.4857 12.0631 59.3951 12.174 59.2238 12.2171V10.8172H56.9439V10.8153L56.942 10.8172ZM67.7828 19.5105V21.582L67.7809 21.584C68.1528 21.841 68.5383 21.9734 68.9238 22.0999C69.6422 22.3355 70.3723 22.5244 71.1258 22.6256C72.0175 22.7444 72.8586 22.5867 73.6861 22.2635C75.4636 21.5704 76.3028 18.9108 74.6342 17.398C73.9664 16.7925 73.2285 16.2999 72.4692 15.8287C72.3569 15.7593 72.244 15.6909 72.1311 15.6225C71.6962 15.359 71.2618 15.0958 70.863 14.7774C70.5125 14.497 70.2458 14.1758 70.3509 13.6851C70.456 13.1964 70.789 12.9316 71.2485 12.7876C71.6125 12.6746 71.9649 12.6571 72.3368 12.7603C72.7496 12.8732 73.1487 13.0154 73.5322 13.2023C73.8401 13.3528 74.146 13.508 74.4687 13.6717L74.4691 13.6719L74.4762 13.6755C74.6185 13.7477 74.7641 13.8215 74.9146 13.8973V11.6622C73.8165 10.9847 72.625 10.5077 71.2757 10.5719C69.7785 10.642 68.4915 11.598 68.108 12.9005C67.7303 14.1777 68.2832 15.6457 69.4826 16.5355C69.8614 16.8168 70.2715 17.0451 70.6821 17.2738C70.7632 17.3189 70.8444 17.3641 70.9253 17.4097C71.0052 17.4546 71.0854 17.4992 71.1655 17.5438C71.6966 17.8394 72.2279 18.135 72.6931 18.5292C73.0066 18.7959 73.2967 19.0996 73.211 19.5689C73.1214 20.0614 72.7885 20.3477 72.3349 20.4878C71.5716 20.7234 70.8045 20.7254 70.0452 20.4645C69.4027 20.2425 68.7933 19.9446 68.1956 19.6234C68.1667 19.608 68.1385 19.5874 68.1096 19.5665C68.0178 19.4997 67.9206 19.429 67.7828 19.5105ZM84.1666 19.8181V19.8182C83.974 19.8252 83.866 19.9158 83.766 19.9997C83.7341 20.0265 83.703 20.0526 83.6702 20.0751C83.3002 20.3282 82.9186 20.5677 82.4786 20.665C80.9717 20.996 80.0761 20.6864 79.932 18.9945C79.9208 18.8687 79.9214 18.7415 79.922 18.6141L79.9222 18.5292L79.9212 17.7921C79.9193 16.5614 79.9174 15.3296 79.9222 14.0979C79.9227 14.0116 79.9205 13.9252 79.9183 13.8376C79.9117 13.5751 79.9047 13.3024 79.969 12.9959H83.6215V10.6907H79.8872V8.21607L79.1297 8.99233C77.8303 10.3239 76.5683 11.6172 75.2612 12.9569C75.666 12.9977 76.0439 12.9935 76.4103 12.9894C76.8139 12.985 77.2035 12.9806 77.5995 13.0368V13.7007C77.5995 14.272 77.599 14.8434 77.5985 15.4149V15.4151V15.4153V15.4155C77.5972 16.7488 77.596 18.0824 77.6015 19.4151C77.6073 20.5365 77.9948 21.4944 79.0033 22.059C80.6076 22.9546 82.2255 22.8865 83.8181 21.9831C84.0576 21.8468 84.1861 21.6716 84.1725 21.3737C84.1575 21.0212 84.1606 20.6677 84.1638 20.3007V20.3004C84.1652 20.1425 84.1666 19.9821 84.1666 19.8182L84.1705 19.8181H84.1666ZM99.6333 10.8133H97.3553H97.3534V22.647H99.571C99.6563 22.4883 99.6472 22.3343 99.6385 22.1857L99.6385 22.1853C99.6359 22.1408 99.6333 22.0967 99.6333 22.0532C99.6356 20.8646 99.6358 19.6752 99.6361 18.486C99.6362 17.6942 99.6364 16.9025 99.6372 16.1111C99.6372 16.0705 99.6356 16.0296 99.634 15.9886V15.9883V15.988C99.6281 15.8367 99.6221 15.6841 99.6956 15.5386C100.138 14.6722 100.616 13.8312 101.37 13.1867C101.915 12.7194 102.521 12.6688 103.163 12.9355C103.562 13.101 103.891 13.3697 104.197 13.6754C104.226 13.7047 104.252 13.7406 104.278 13.7771C104.35 13.8789 104.427 13.9862 104.6 13.9733C104.852 13.5594 105.106 13.1447 105.361 12.7284L105.366 12.7188C105.521 12.4666 105.676 12.2138 105.83 11.9601C105.239 11.4344 104.614 11.1093 103.909 10.9185C103.009 10.6732 102.19 10.7978 101.436 11.3663C100.922 11.7557 100.478 12.2132 100.05 12.6902C100.031 12.7114 100.013 12.7363 99.9956 12.7619C99.9269 12.8607 99.8514 12.9694 99.6333 12.9122V10.8133ZM52.429 22.6782V10.8192H54.6796V22.6412C54.237 22.684 53.7922 22.6796 53.3314 22.675H53.3314C53.0382 22.6721 52.7386 22.6691 52.429 22.6782ZM52.1272 7.3322C52.1233 8.12657 52.7716 8.77491 53.564 8.76907C54.3487 8.76323 55.0204 8.08374 54.997 7.31663C54.9717 6.51837 54.3195 5.89923 53.5212 5.91481C52.756 5.93038 52.1311 6.56704 52.1272 7.3322Z" fill="white"/>
</svg>
