<svg width="123" height="32" viewBox="0 0 123 32" fill="none" xmlns="http://www.w3.org/2000/svg">
<g clip-path="url(#clip0_72_209)">
<path d="M0.683159 11.3658C1.65464 8.11327 3.66485 5.17711 6.365 3.12267C7.03476 2.60223 7.75352 2.1472 8.49918 1.74296C9.2458 1.34066 10.0222 0.990117 10.8265 0.71769C11.6298 0.442333 12.4524 0.222633 13.2893 0.0761665C13.4296 0.0517554 13.5708 0.0302736 13.7121 0.00976832C14.8239 -0.150368 15.8232 0.712808 15.8232 1.85427C15.8232 2.80825 15.1131 3.59917 14.1791 3.70756C12.116 3.94679 10.1097 4.71525 8.39444 5.94459C6.21799 7.48737 4.5412 9.76444 3.67831 12.3393C2.80869 14.9113 2.77505 17.7996 3.58702 20.4223C3.78497 21.0804 4.03865 21.722 4.34518 22.3391C4.64979 22.9562 4.99571 23.5547 5.39257 24.1182C6.1882 25.243 7.15199 26.2546 8.25799 27.0797C9.35631 27.9165 10.5959 28.558 11.8989 29.0082C12.5542 29.225 13.2249 29.3919 13.9072 29.5101C14.5894 29.6272 15.2822 29.6761 15.976 29.6858C18.754 29.7112 21.5358 28.8119 23.8103 27.1402C26.0828 25.4695 27.8403 23.0519 28.7138 20.31C29.5238 17.781 29.5901 14.9913 28.8925 12.3999C28.7955 12.0386 28.9905 11.6626 29.3393 11.5406C29.7141 11.4088 30.1244 11.6177 30.2416 12.0034C31.1026 14.8371 31.1353 17.9334 30.3156 20.81C29.4325 23.9268 27.5348 26.7409 24.9912 28.7426C22.4487 30.7463 19.2489 31.9092 16.001 31.9863C15.1909 32.0029 14.3761 31.9707 13.5689 31.8604C12.7618 31.7491 11.9623 31.5782 11.1782 31.3468C9.61575 30.8664 8.11578 30.1506 6.77147 29.1957C5.41851 28.2534 4.22218 27.0807 3.21803 25.7547C2.71644 25.0907 2.27346 24.3808 1.87949 23.6436C1.4836 22.9064 1.1492 22.135 0.880145 21.3392C-0.214328 18.1589 -0.296966 14.6242 0.682198 11.3697V11.3658H0.683159Z" fill="white"/>
<path d="M6.41975 19.5874C5.94987 19.7525 5.44539 19.483 5.30222 18.9996C5.16865 18.5475 5.05142 18.0271 4.98032 17.3485L4.91401 16.4784C4.87654 15.3155 4.99281 14.1399 5.29934 13.0023C5.62124 11.8716 6.1113 10.7887 6.75319 9.7986C7.38739 8.80165 8.20993 7.93359 9.12759 7.1915C10.96 5.68875 13.3095 4.83925 15.6916 4.74062C16.8831 4.70938 18.0852 4.84803 19.2498 5.17417C20.4067 5.5208 21.5118 6.05003 22.5188 6.73647C23.5326 7.41608 24.4233 8.28316 25.1719 9.26253L25.4544 9.62968C25.5437 9.75564 25.6225 9.88941 25.7071 10.0193L25.955 10.4128L26.078 10.61C26.1164 10.6774 26.1501 10.7477 26.1856 10.817L26.6046 11.6519L26.9447 12.5248C27.3531 13.7073 27.5924 14.9552 27.6356 16.2138C27.6587 17.4725 27.5049 18.7418 27.1619 19.9673C26.8093 21.1908 26.25 22.3508 25.5437 23.4083C25.3573 23.666 25.1882 23.9385 24.9816 24.1806L24.3609 24.9081C24.1379 25.1356 23.9063 25.3543 23.6777 25.577L23.5047 25.742L23.3192 25.8923L22.9454 26.1911C21.9365 26.9694 20.8122 27.6177 19.5986 28.0405C19.2642 28.1577 18.925 28.2602 18.582 28.3481C17.1829 28.7074 15.8242 27.6294 15.8242 26.1628C15.8242 25.0946 16.5593 24.1562 17.5922 23.958C17.8094 23.916 18.0256 23.8652 18.2399 23.8057C19.0307 23.587 19.7744 23.2071 20.4644 22.7423L20.7209 22.5627L20.8497 22.4738L20.9679 22.3703L21.4445 21.9592L21.8817 21.5032C22.0307 21.3538 22.146 21.1742 22.2834 21.0131C22.7917 20.3374 23.2164 19.5874 23.5018 18.777C23.7776 17.9646 23.9333 17.1073 23.9727 16.2334C23.9909 15.3585 23.8737 14.4855 23.6392 13.6399L23.4384 13.0121L23.1751 12.4067C23.153 12.3559 23.1338 12.3042 23.1088 12.2544L23.0281 12.1098L22.8676 11.8198C22.8128 11.7241 22.7648 11.6236 22.7062 11.5298L22.5178 11.2574C22.023 10.5251 21.4176 9.85426 20.7056 9.31819C19.9993 8.77626 19.2133 8.33686 18.3715 8.02733C17.524 7.73831 16.6323 7.58012 15.7261 7.5479C13.9187 7.52056 12.0795 8.04881 10.5747 9.14536C9.82329 9.68533 9.12663 10.3308 8.57795 11.0992C8.02159 11.8599 7.57669 12.7064 7.26151 13.6087C6.96171 14.5168 6.81277 15.4747 6.78682 16.4413L6.80027 17.1678C6.83006 17.7459 6.88099 18.113 6.98189 18.5319C7.08951 18.9772 6.85024 19.4332 6.4236 19.5826L6.41975 19.5874Z" fill="white"/>
<path d="M21.0995 14.4239C21.5117 14.2794 21.9643 14.5187 22.0719 14.9473C22.1719 15.3457 22.2363 15.7539 22.2535 16.1669C22.2833 16.8524 22.2228 17.5495 22.0479 18.2262C21.6847 19.5698 20.9092 20.8197 19.808 21.7072C18.7241 22.6153 17.3222 23.1426 15.8923 23.2158C15.1774 23.2432 14.4529 23.167 13.7486 22.9766C13.0481 22.7755 12.3783 22.462 11.7652 22.0539C11.1483 21.6487 10.6035 21.1302 10.1442 20.5404C9.68776 19.9496 9.2986 19.2886 9.0478 18.568C8.7922 17.8513 8.63941 17.0906 8.60578 16.3231C8.58368 15.5556 8.67016 14.7784 8.87387 14.0265C9.08335 13.2747 9.41871 12.5599 9.84727 11.9067C9.9597 11.7475 10.0635 11.5796 10.1884 11.4292L10.566 10.9791C10.8389 10.6988 11.1147 10.4166 11.4299 10.1813C12.2073 9.60032 12.8213 9.20388 13.5775 9.03105C14.8017 8.75081 15.8135 9.61496 15.8135 10.8902C15.8135 11.7378 15.2581 12.4701 14.4606 12.7191C14.0512 12.847 13.7149 13.0081 13.542 13.1165C13.3652 13.2219 13.2114 13.3586 13.05 13.4885C12.9779 13.5627 12.9039 13.636 12.829 13.7082C12.7531 13.7795 12.6954 13.8674 12.6243 13.9455C12.3649 14.2726 12.1438 14.6397 11.992 15.0391C11.846 15.4404 11.7576 15.8662 11.7258 16.3056C11.7066 16.7459 11.7556 17.1863 11.8633 17.6169C11.9661 18.0505 12.1659 18.4576 12.4062 18.8394C12.6502 19.2193 12.952 19.5708 13.3113 19.853C13.6678 20.1391 14.0676 20.3744 14.4981 20.5443C14.9324 20.7025 15.3927 20.7943 15.8654 20.8226C16.8062 20.8558 17.7748 20.6029 18.579 20.0404C19.3977 19.4975 20.0281 18.6607 20.3807 17.7077C20.5489 17.2263 20.6383 16.7157 20.6623 16.1962C20.6767 15.8857 20.6546 15.5752 20.6046 15.2676C20.546 14.9014 20.7545 14.546 21.0995 14.4249V14.4239Z" fill="white"/>
<path d="M49.5136 7.34973C50.0469 7.34973 50.3141 7.79304 49.9018 8.26173L43.7165 14.6457L50.6783 23.5685C51.0665 24.086 50.7273 24.6035 49.8778 24.6035H48.7862C47.8157 24.6035 47.4525 24.3818 46.8462 23.5929L41.5093 16.913L39.205 19.2789V23.3712C39.205 24.3574 38.9869 24.6035 37.9924 24.6035H37.0949C36.1244 24.6035 35.8822 24.3574 35.8822 23.3712V8.582C35.8822 7.59579 36.1244 7.34973 37.0949 7.34973H37.9924C38.9869 7.34973 39.205 7.59579 39.205 8.582V15.3849L46.0938 8.26173C46.7491 7.52256 47.1613 7.34973 48.1309 7.34973H49.5136Z" fill="#FAFAFA"/>
<path d="M63.9763 21.0785H56.5052L55.6077 23.4942C55.3406 24.3818 55.0254 24.6035 54.0799 24.6035H52.9153C52.2119 24.6035 51.8967 24.1846 52.1639 23.4942L58.0581 8.48338C58.3492 7.57138 58.6644 7.34973 59.6109 7.34973H60.7995C61.721 7.34973 62.0362 7.57138 62.3524 8.43456L68.4166 23.5196C68.6838 24.21 68.4166 24.6045 67.6402 24.6045H66.5006C65.5541 24.6045 65.2639 24.3828 64.9478 23.4952L63.9773 21.0795L63.9763 21.0785ZM57.5728 18.2439H62.8607L60.1682 11.4166L57.5728 18.2439Z" fill="#FAFAFA"/>
<path d="M82.9695 19.8961V8.582C82.9695 7.59579 83.2117 7.34973 84.2062 7.34973H85.1037C86.0742 7.34973 86.3164 7.59579 86.3164 8.582V23.3712C86.3164 24.3574 86.0742 24.6035 85.1037 24.6035H83.7209C82.7264 24.6035 82.3622 24.4062 81.8529 23.544L75.4735 14.4241C74.6971 13.2904 74.1397 12.4028 73.8486 11.5396H73.7515V23.3712C73.7515 24.3574 73.5334 24.6035 72.5389 24.6035H71.6414C70.6709 24.6035 70.4287 24.3574 70.4287 23.3712V8.582C70.4287 7.59579 70.6709 7.34973 71.6414 7.34973H73.1942C74.1647 7.34973 74.5529 7.54697 75.0372 8.40917L81.6108 17.3817C82.2411 18.2449 82.6534 19.0827 82.8965 19.8961H82.9695Z" fill="#FAFAFA"/>
<path d="M103.807 8.77922C104.001 8.92666 104.316 9.1737 104.316 9.51839C104.316 9.71563 104.195 9.96169 103.904 10.2576L103.152 10.9723C102.836 11.2682 102.569 11.3912 102.351 11.3912C102.036 11.3912 101.769 11.1696 101.551 11.0465C100.75 10.5534 99.5376 10.2087 98.0578 10.2087C94.88 10.2087 92.3817 11.9829 92.3817 15.878C92.3817 19.773 94.6619 21.7688 98.47 21.7688C99.4886 21.7688 100.507 21.6458 101.454 21.3988V18.3425H99.1003C98.1298 18.3425 97.9117 18.0964 97.9117 17.1591V16.5673C97.9117 15.6065 98.1298 15.3595 99.1003 15.3595H103.491C104.436 15.3595 104.679 15.6055 104.679 16.5673V22.2121C104.679 23.2472 104.315 23.6661 103.612 23.9619C102.472 24.4306 100.434 24.8495 98.3239 24.8495C92.2837 24.8495 88.8878 21.3002 88.8878 16.0498C88.8878 10.7995 92.5018 7.12708 98.0568 7.12708C100.628 7.12708 102.374 7.76762 103.806 8.77824L103.807 8.77922Z" fill="#FAFAFA"/>
<path d="M118.459 21.0785H110.988L110.09 23.4942C109.823 24.3818 109.508 24.6035 108.562 24.6035H107.398C106.694 24.6035 106.379 24.1846 106.646 23.4942L112.54 8.48338C112.832 7.57138 113.147 7.34973 114.093 7.34973H115.282C116.203 7.34973 116.519 7.57138 116.835 8.43456L122.899 23.5196C123.166 24.21 122.899 24.6045 122.123 24.6045H120.983C120.037 24.6045 119.746 24.3828 119.43 23.4952L118.46 21.0795H118.459V21.0785ZM112.055 18.2439H117.343L114.651 11.4166L112.055 18.2439Z" fill="#FAFAFA"/>
</g>
<defs>
<clipPath id="clip0_72_209">
<rect width="123" height="32" fill="white" transform="translate(0 -0.00976562)"/>
</clipPath>
</defs>
</svg>
