<svg width="128" height="24" viewBox="0 0 128 24" fill="none" xmlns="http://www.w3.org/2000/svg">
<path d="M37.2797 16.674L29.1043 2.4968C27.3115 -0.456417 22.9467 -0.491059 21.2146 2.61804L12.6407 17.3581C11.0386 20.0602 13.0218 23.4551 16.2262 23.4551H33.4172C36.6475 23.4551 39.0724 19.9736 37.2797 16.674Z" fill="white"/>
<path d="M25.4929 17.7738L24.9906 16.8904C24.5229 16.0763 23.4837 14.3096 23.4837 14.3096L16.564 2.30623C14.7799 -0.36119 10.5363 -0.586362 8.74357 2.78255L0.698016 16.6999C-0.964791 19.6271 1.00979 23.4291 4.62986 23.4551H21.7256H29.0177H33.3566C28.9224 23.4897 27.5021 21.1947 25.4929 17.7738Z" fill="white"/>
<path d="M25.4928 17.7738L24.9905 16.8905C24.5229 16.0764 23.4836 14.3096 23.4836 14.3096L18.9715 6.48059L12.6061 17.3928C11.0039 20.0948 12.9871 23.4897 16.1915 23.4897H21.6909H28.983H33.3479C28.8877 23.4551 27.5021 21.1947 25.4928 17.7738Z" fill="url(#paint0_linear_72_172)"/>
<path d="M70.0249 22.1473V2.97302H85.9601V4.18549C85.9601 5.1468 85.1894 5.91758 84.228 5.91758H74.0001V11.0705H84.228V14.0151H74.0001V19.1681H84.228C85.1807 19.1681 85.9601 19.9388 85.9601 20.9002V22.1126L70.0249 22.1473Z" fill="white"/>
<path d="M108.85 2.97302H105.1C104.398 2.97302 103.775 3.26748 103.333 3.82175L98.8036 9.52898L94.2741 3.86505C93.8325 3.31078 93.2089 3.01632 92.5074 3.01632H88.7574L96.3786 12.5861L88.7574 22.1559H92.5074C93.2089 22.1559 93.8325 21.8615 94.2741 21.3072L98.8036 15.6433L103.368 21.3505C103.809 21.8615 104.433 22.1992 105.134 22.1992H108.884L101.263 12.6294L108.85 2.97302Z" fill="white"/>
<path d="M57.5453 20.1207L62.7675 10.9926V22.1039H66.7427V2.93835H64.2744C63.5037 2.93835 62.7675 3.34539 62.3951 4.04689L56.1423 15.4527L49.8894 4.03823C49.517 3.33673 48.7809 2.92969 48.0101 2.92969H45.5505V22.1039H49.5257V10.9926L54.7479 20.1207H57.5453Z" fill="white"/>
<path d="M119.233 22.3638C113.717 22.4331 109.222 18.0942 109.187 12.5775C109.187 9.55501 110.105 7.05214 111.837 5.32871C113.57 3.63126 116.072 2.71326 119.052 2.71326C122.55 2.71326 125.304 3.92572 127.296 6.28136L126.049 7.3466C125.278 8.00479 124.135 8.04809 123.287 7.42454C122.178 6.57582 120.784 6.16878 119.199 6.16878C115.302 6.16878 112.981 8.52442 112.981 12.4996C112.981 16.5094 115.371 18.9776 119.199 18.9776C120.818 18.9776 122.178 18.5359 123.287 17.7305C124.101 17.1069 125.235 17.1416 126.049 17.8084L127.296 18.8737C125.304 21.186 122.654 22.3638 119.233 22.3638Z" fill="white"/>
<defs>
<linearGradient id="paint0_linear_72_172" x1="10.7326" y1="12.4577" x2="29.3548" y2="19.7688" gradientUnits="userSpaceOnUse">
<stop stop-color="#C6C6C6" stop-opacity="0"/>
<stop offset="1" stop-color="#858585"/>
</linearGradient>
</defs>
</svg>
