<svg width="146" height="23" viewBox="0 0 146 23" fill="none" xmlns="http://www.w3.org/2000/svg">
<g clip-path="url(#clip0_72_142)">
<path d="M28.1529 17.6848C27.8134 17.6848 27.5733 17.6134 27.4328 17.4711C27.304 17.3285 27.2396 17.1029 27.2396 16.7942V6.48229C27.2396 6.17358 27.3098 5.94798 27.4504 5.80551C27.5909 5.65116 27.825 5.57397 28.1529 5.57397H32.4557C34.0949 5.57397 35.3009 5.92424 36.0737 6.62476C36.8464 7.32529 37.2328 8.37014 37.2328 9.75932C37.2328 11.1366 36.8464 12.1755 36.0737 12.876C35.3126 13.5648 34.1066 13.9091 32.4557 13.9091H30.7873V16.7942C30.7873 17.1029 30.7171 17.3285 30.5765 17.4711C30.436 17.6134 30.196 17.6848 29.8565 17.6848H28.1529ZM32.1748 11.3266C32.6548 11.3266 33.0237 11.196 33.2812 10.9348C33.5504 10.6736 33.6852 10.2817 33.6852 9.75932C33.6852 9.22501 33.5504 8.82726 33.2812 8.56604C33.0237 8.30484 32.6548 8.17422 32.1748 8.17422H30.7873V11.3266H32.1748Z" fill="white"/>
<path d="M41.3804 17.9518C40.2799 17.9518 39.3959 17.5956 38.7285 16.8833C38.0728 16.159 37.745 15.1439 37.745 13.8377C37.745 12.8404 37.9675 11.9677 38.4123 11.2197C38.869 10.4717 39.5071 9.89582 40.3267 9.49213C41.158 9.07656 42.1122 8.86877 43.1894 8.86877C44.0793 8.86877 44.8638 8.9697 45.5428 9.17154C46.2336 9.36152 46.8658 9.64055 47.4396 10.0086V17.1326C47.4396 17.3582 47.3987 17.5066 47.3166 17.5778C47.2347 17.6491 47.0708 17.6847 46.8249 17.6847H45.0335C44.9047 17.6847 44.8052 17.6669 44.735 17.6312C44.6647 17.5838 44.6062 17.5125 44.5594 17.4175L44.331 16.8833C43.9914 17.2513 43.5817 17.5185 43.1016 17.6847C42.6333 17.8628 42.0596 17.9518 41.3804 17.9518ZM42.6977 15.5297C43.1543 15.5297 43.5114 15.4169 43.7689 15.1914C44.0265 14.9658 44.1553 14.6451 44.1553 14.2295V11.4512C43.933 11.3444 43.6519 11.2909 43.3124 11.2909C42.6918 11.2909 42.1942 11.5106 41.8195 11.9499C41.4565 12.3892 41.2751 13.0066 41.2751 13.8021C41.2751 14.9538 41.7492 15.5297 42.6977 15.5297Z" fill="white"/>
<path d="M49.8838 17.6847C49.5442 17.6847 49.3042 17.6134 49.1637 17.471C49.0232 17.3285 48.953 17.1029 48.953 16.7942V9.68804C48.953 9.47432 48.9881 9.33184 49.0583 9.26059C49.1403 9.17748 49.3042 9.13593 49.5501 9.13593H51.3591C51.4995 9.13593 51.6049 9.15967 51.6751 9.20716C51.7571 9.24278 51.8039 9.31403 51.8157 9.42089L51.9034 9.95518C52.2313 9.62273 52.6587 9.36152 53.1855 9.17154C53.7242 8.9697 54.3213 8.86877 54.977 8.86877C55.9253 8.86877 56.6923 9.14186 57.2776 9.68804C57.8631 10.2223 58.1558 11.0178 58.1558 12.0746V16.7942C58.1558 17.1029 58.0856 17.3285 57.9451 17.471C57.8163 17.6134 57.582 17.6847 57.2425 17.6847H55.539C55.1994 17.6847 54.9536 17.6134 54.8013 17.471C54.6608 17.3285 54.5906 17.1029 54.5906 16.7942V12.3061C54.5906 11.9499 54.5145 11.6947 54.3623 11.5403C54.21 11.3859 53.97 11.3087 53.6422 11.3087C53.2909 11.3087 53.0099 11.4037 52.7992 11.5936C52.6002 11.7837 52.5007 12.0449 52.5007 12.3774V16.7942C52.5007 17.1029 52.4303 17.3285 52.2899 17.471C52.1611 17.6134 51.9269 17.6847 51.5874 17.6847H49.8838Z" fill="white"/>
<path d="M64.3637 17.9518C62.7245 17.9518 61.46 17.5659 60.5701 16.7942C59.6803 16.0225 59.2354 14.9004 59.2354 13.4281C59.2354 12.5258 59.4403 11.7303 59.85 11.0416C60.2599 10.3529 60.8512 9.81864 61.6239 9.4387C62.4084 9.05875 63.3334 8.86877 64.3988 8.86877C65.2067 8.86877 65.8858 8.94596 66.4361 9.10031C66.9981 9.25465 67.4957 9.49212 67.9289 9.81271C68.0577 9.89582 68.1221 10.0027 68.1221 10.1333C68.1221 10.2283 68.0752 10.3529 67.9816 10.5073L67.2615 11.7718C67.1795 11.9381 67.08 12.0212 66.963 12.0212C66.8927 12.0212 66.7814 11.9737 66.6293 11.8787C66.3131 11.6769 66.0146 11.5284 65.7336 11.4334C65.4642 11.3384 65.1247 11.2909 64.715 11.2909C64.1295 11.2909 63.6554 11.4809 63.2924 11.8609C62.9411 12.2408 62.7655 12.7632 62.7655 13.4281C62.7655 14.1049 62.9469 14.6273 63.3099 14.9953C63.6729 15.3515 64.1705 15.5297 64.8027 15.5297C65.1774 15.5297 65.517 15.4763 65.8214 15.3693C66.1258 15.2626 66.4361 15.1142 66.7522 14.9241C66.9161 14.8291 67.0332 14.7816 67.1035 14.7816C67.2088 14.7816 67.3025 14.8647 67.3845 15.0311L68.1747 16.4024C68.2333 16.5211 68.2626 16.6161 68.2626 16.6873C68.2626 16.7942 68.1923 16.8951 68.0519 16.9901C67.5601 17.3107 67.0215 17.5481 66.4361 17.7025C65.8623 17.8687 65.1715 17.9518 64.3637 17.9518Z" fill="white"/>
<path d="M72.7155 17.9518C71.6148 17.9518 70.7309 17.5956 70.0635 16.8833C69.4079 16.159 69.08 15.1439 69.08 13.8377C69.08 12.8404 69.3024 11.9677 69.7474 11.2197C70.204 10.4717 70.8421 9.89582 71.6617 9.49213C72.493 9.07656 73.4473 8.86877 74.5245 8.86877C75.4143 8.86877 76.1987 8.9697 76.8778 9.17154C77.5686 9.36152 78.2009 9.64055 78.7746 10.0086V17.1326C78.7746 17.3582 78.7336 17.5066 78.6517 17.5778C78.5697 17.6491 78.4058 17.6847 78.1599 17.6847H76.3686C76.2398 17.6847 76.1402 17.6669 76.0699 17.6312C75.9997 17.5838 75.9412 17.5125 75.8943 17.4175L75.666 16.8833C75.3265 17.2513 74.9166 17.5185 74.4366 17.6847C73.9683 17.8628 73.3945 17.9518 72.7155 17.9518ZM74.0327 15.5297C74.4894 15.5297 74.8464 15.4169 75.104 15.1914C75.3616 14.9658 75.4904 14.6451 75.4904 14.2295V11.4512C75.2679 11.3444 74.987 11.2909 74.6473 11.2909C74.0269 11.2909 73.5293 11.5106 73.1545 11.9499C72.7916 12.3892 72.6101 13.0066 72.6101 13.8021C72.6101 14.9538 73.0843 15.5297 74.0327 15.5297Z" fill="white"/>
<path d="M89.8069 17.0079C89.8889 17.1029 89.9299 17.2098 89.9299 17.3285C89.9299 17.4353 89.8948 17.5245 89.8245 17.5956C89.7543 17.6551 89.6606 17.6848 89.5435 17.6848H86.8213C86.6574 17.6848 86.5344 17.6729 86.4525 17.6492C86.3822 17.6134 86.3061 17.5481 86.2242 17.4533L83.8356 14.1584V16.7942C83.8356 17.1029 83.7654 17.3285 83.6249 17.4711C83.4844 17.6134 83.2443 17.6848 82.9048 17.6848H81.2012C80.8617 17.6848 80.6217 17.6134 80.4811 17.4711C80.3524 17.3285 80.288 17.1029 80.288 16.7942V6.48229C80.288 6.17358 80.3582 5.94798 80.4987 5.80551C80.6392 5.65116 80.8734 5.57397 81.2012 5.57397H82.9048C83.2443 5.57397 83.4844 5.65116 83.6249 5.80551C83.7654 5.94798 83.8356 6.17358 83.8356 6.48229V12.4486L86.154 9.38531C86.2242 9.29031 86.3003 9.22501 86.3822 9.18939C86.4642 9.15378 86.5872 9.13597 86.7511 9.13597H89.4733C89.5904 9.13597 89.6781 9.17158 89.7367 9.24282C89.8069 9.30219 89.8421 9.38531 89.8421 9.49217C89.8421 9.6109 89.8011 9.71775 89.7192 9.81275L86.716 13.3035L89.8069 17.0079Z" fill="white"/>
<path d="M95.5095 17.9518C94.526 17.9518 93.6478 17.7856 92.8751 17.4532C92.1141 17.1207 91.5111 16.622 91.0661 15.9572C90.6213 15.2923 90.3988 14.4789 90.3988 13.5172C90.3988 12.0093 90.8203 10.8576 91.6633 10.062C92.5063 9.26654 93.7182 8.86877 95.2988 8.86877C96.8443 8.86877 98.0152 9.26059 98.8113 10.0442C99.6193 10.816 100.023 11.8906 100.023 13.2678C100.023 13.8615 99.7656 14.1583 99.2504 14.1583H93.7357C93.7357 14.6688 93.923 15.0608 94.2977 15.3338C94.6841 15.6069 95.2636 15.7434 96.0364 15.7434C96.5164 15.7434 96.9146 15.7019 97.2307 15.6188C97.5585 15.5238 97.8864 15.3873 98.2142 15.2092C98.3547 15.1498 98.4484 15.12 98.4951 15.12C98.6006 15.12 98.6883 15.1914 98.7586 15.3338L99.3558 16.4736C99.4143 16.5924 99.4436 16.6814 99.4436 16.7408C99.4436 16.8476 99.3733 16.9486 99.2328 17.0435C98.7528 17.3641 98.2084 17.5956 97.5995 17.7381C96.9907 17.8806 96.294 17.9518 95.5095 17.9518ZM96.8619 12.3952C96.8619 11.944 96.7331 11.5937 96.4755 11.3444C96.2179 11.095 95.8315 10.9704 95.3163 10.9704C94.8011 10.9704 94.409 11.101 94.1396 11.3622C93.8703 11.6116 93.7357 11.9559 93.7357 12.3952H96.8619Z" fill="white"/>
<path d="M106.043 17.9518C105.059 17.9518 104.128 17.8509 103.25 17.6491C102.372 17.4353 101.664 17.1385 101.125 16.7586C100.926 16.628 100.827 16.4914 100.827 16.349C100.827 16.254 100.862 16.1531 100.932 16.0461L101.793 14.657C101.886 14.5145 101.98 14.4433 102.074 14.4433C102.132 14.4433 102.232 14.4848 102.372 14.5679C102.805 14.8173 103.297 15.0191 103.848 15.1734C104.398 15.3278 104.942 15.405 105.481 15.405C106.031 15.405 106.435 15.3219 106.693 15.1556C106.962 14.9894 107.097 14.7223 107.097 14.3542C107.097 13.998 106.95 13.719 106.658 13.5172C106.376 13.3153 105.844 13.0601 105.059 12.7514C103.877 12.3001 102.952 11.7955 102.284 11.2375C101.629 10.6676 101.301 9.89579 101.301 8.92218C101.301 7.74673 101.717 6.85029 102.548 6.23288C103.379 5.61547 104.486 5.30676 105.867 5.30676C106.827 5.30676 107.647 5.39582 108.326 5.57391C109.017 5.74013 109.602 6.00135 110.082 6.35755C110.281 6.5119 110.381 6.65438 110.381 6.78499C110.381 6.8681 110.346 6.96309 110.275 7.06995L109.415 8.45913C109.309 8.6016 109.216 8.67284 109.134 8.67284C109.075 8.67284 108.976 8.63128 108.835 8.54817C108.156 8.09699 107.348 7.87139 106.412 7.87139C105.908 7.87139 105.522 7.9545 105.252 8.12074C104.983 8.28696 104.849 8.56005 104.849 8.93999C104.849 9.20121 104.919 9.41492 105.059 9.58114C105.2 9.74737 105.387 9.89579 105.621 10.0264C105.867 10.1451 106.242 10.2995 106.745 10.4894L107.079 10.6141C107.945 10.9585 108.625 11.2909 109.116 11.6115C109.62 11.9201 110 12.306 110.258 12.7692C110.515 13.2203 110.644 13.7902 110.644 14.4789C110.644 15.5356 110.252 16.3787 109.468 17.0079C108.695 17.6372 107.553 17.9518 106.043 17.9518Z" fill="white"/>
<path d="M114.376 17.6848C114.2 17.6848 114.066 17.6551 113.972 17.5957C113.878 17.5364 113.808 17.4176 113.761 17.2395L111.495 9.54561C111.472 9.47438 111.46 9.42094 111.46 9.38532C111.46 9.2191 111.577 9.13599 111.812 9.13599H114.13C114.282 9.13599 114.393 9.16567 114.464 9.22503C114.534 9.27252 114.581 9.35563 114.604 9.47436L115.552 13.5173L116.746 10.258C116.806 10.1155 116.864 10.0205 116.922 9.97305C116.993 9.91368 117.11 9.88399 117.274 9.88399H118.38C118.544 9.88399 118.655 9.91368 118.714 9.97305C118.784 10.0205 118.848 10.1155 118.907 10.258L120.084 13.5173L121.05 9.47436C121.084 9.35563 121.131 9.27252 121.19 9.22503C121.248 9.16567 121.354 9.13599 121.506 9.13599H123.842C124.076 9.13599 124.193 9.2191 124.193 9.38532C124.193 9.42094 124.182 9.47438 124.158 9.54561L121.875 17.2395C121.828 17.4176 121.758 17.5364 121.664 17.5957C121.582 17.6551 121.454 17.6848 121.278 17.6848H119.557C119.393 17.6848 119.27 17.6551 119.188 17.5957C119.106 17.5245 119.036 17.4058 118.977 17.2395L117.818 14.0159L116.659 17.2395C116.612 17.4058 116.541 17.5245 116.448 17.5957C116.366 17.6551 116.244 17.6848 116.08 17.6848H114.376Z" fill="white"/>
<path d="M128.645 17.9518C127.544 17.9518 126.661 17.5956 125.993 16.8833C125.338 16.159 125.01 15.1439 125.01 13.8377C125.01 12.8404 125.232 11.9677 125.677 11.2197C126.133 10.4717 126.772 9.89582 127.591 9.49213C128.423 9.07656 129.377 8.86877 130.454 8.86877C131.344 8.86877 132.128 8.9697 132.808 9.17154C133.498 9.36152 134.131 9.64055 134.704 10.0086V17.1326C134.704 17.3582 134.663 17.5066 134.581 17.5778C134.499 17.6491 134.336 17.6847 134.09 17.6847H132.298C132.169 17.6847 132.07 17.6669 132 17.6312C131.929 17.5838 131.871 17.5125 131.824 17.4175L131.596 16.8833C131.256 17.2513 130.846 17.5185 130.366 17.6847C129.898 17.8628 129.325 17.9518 128.645 17.9518ZM129.963 15.5297C130.419 15.5297 130.777 15.4169 131.034 15.1914C131.292 14.9658 131.421 14.6451 131.421 14.2295V11.4512C131.197 11.3444 130.917 11.2909 130.577 11.2909C129.956 11.2909 129.459 11.5106 129.084 11.9499C128.722 12.3892 128.539 13.0066 128.539 13.8021C128.539 14.9538 129.015 15.5297 129.963 15.5297Z" fill="white"/>
<path d="M137.131 21.2823C136.791 21.2823 136.552 21.2111 136.41 21.0686C136.281 20.9261 136.218 20.7005 136.218 20.3918V10.1867C136.744 9.80677 137.406 9.49212 138.202 9.24278C138.999 8.99345 139.829 8.86877 140.696 8.86877C144.232 8.86877 146 10.3886 146 13.4281C146 14.8054 145.625 15.9037 144.876 16.723C144.126 17.5422 143.067 17.9518 141.697 17.9518C141.311 17.9518 140.936 17.9043 140.573 17.8093C140.222 17.7144 139.929 17.5838 139.695 17.4175V20.3918C139.695 20.7005 139.624 20.9261 139.484 21.0686C139.344 21.2111 139.103 21.2823 138.764 21.2823H137.131ZM140.942 15.5475C141.446 15.5475 141.821 15.3576 142.066 14.9775C142.323 14.5857 142.452 14.0633 142.452 13.4103C142.452 12.6386 142.3 12.0983 141.996 11.7896C141.703 11.469 141.246 11.3087 140.626 11.3087C140.227 11.3087 139.912 11.3622 139.678 11.469V14.3008C139.678 14.7045 139.788 15.0133 140.011 15.227C140.234 15.4407 140.544 15.5475 140.942 15.5475Z" fill="white"/>
<path fill-rule="evenodd" clip-rule="evenodd" d="M11.1189 22.9448C7.79168 22.9423 5.11156 22.1326 3.23893 20.6784C1.34383 19.2068 0.338501 17.1183 0.338501 14.7551C0.338501 12.4781 1.34163 10.8362 2.47667 9.72634C3.36619 8.85658 4.34779 8.29954 5.03129 7.97913C4.87672 7.4981 4.68388 6.86837 4.51135 6.21794C4.2805 5.34758 4.05402 4.32642 4.05402 3.57811C4.05402 2.69239 4.24445 1.80288 4.7579 1.11169C5.30038 0.381438 6.11705 -0.00976562 7.09953 -0.00976562C7.86738 -0.00976562 8.51927 0.279067 9.02964 0.777332C9.51748 1.2536 9.84216 1.8861 10.0663 2.54545C10.4603 3.70404 10.6136 5.15962 10.6567 6.61221H11.5977C11.6408 5.15962 11.7941 3.70404 12.1881 2.54545C12.4123 1.8861 12.7369 1.2536 13.2248 0.777332C13.7352 0.279067 14.387 -0.00976562 15.1549 -0.00976562C16.1374 -0.00976562 16.954 0.381438 17.4966 1.11169C18.01 1.80288 18.2005 2.69239 18.2005 3.57811C18.2005 4.32642 17.9739 5.34758 17.7431 6.21794C17.5705 6.86837 17.3777 7.4981 17.2231 7.97913C17.9066 8.29954 18.8883 8.85658 19.7777 9.72634C20.9128 10.8362 21.9159 12.4781 21.9159 14.7551C21.9159 17.1183 20.9106 19.2068 19.0155 20.6784C17.1429 22.1326 14.4627 22.9423 11.1355 22.9448H11.1189Z" fill="white"/>
<path d="M7.09951 0.832642C5.66052 0.832642 4.99812 1.93241 4.99812 3.45336C4.99812 4.66229 5.76777 7.08346 6.08355 8.02598C6.15458 8.23797 6.04298 8.47023 5.83943 8.55244C4.68613 9.0183 1.28259 10.724 1.28259 14.6304C1.28259 18.7453 4.74136 21.848 11.1196 21.853C11.1221 21.853 11.1247 21.8529 11.1272 21.8529C11.1297 21.8529 11.1323 21.853 11.1348 21.853C17.513 21.848 20.9717 18.7453 20.9717 14.6304C20.9717 10.724 17.5683 9.0183 16.415 8.55244C16.2114 8.47023 16.0998 8.23797 16.1708 8.02598C16.4867 7.08346 17.2563 4.66229 17.2563 3.45336C17.2563 1.93241 16.5939 0.832642 15.1549 0.832642C13.0835 0.832642 12.5671 3.8385 12.5303 7.06451C12.5279 7.27987 12.3579 7.45462 12.1477 7.45462H10.1067C9.89649 7.45462 9.72653 7.27987 9.72408 7.06451C9.68725 3.8385 9.17091 0.832642 7.09951 0.832642Z" fill="white"/>
<path d="M11.1348 20.5347C6.44841 20.5347 1.2907 17.9649 1.28262 14.6382C1.2826 14.6433 1.28259 14.6485 1.28259 14.6537C1.28259 18.7719 4.74686 21.8762 11.1348 21.8762C17.5228 21.8762 20.987 18.7719 20.987 14.6537C20.987 14.6485 20.987 14.6433 20.987 14.6382C20.9789 17.9649 15.8212 20.5347 11.1348 20.5347Z" fill="white"/>
<path d="M8.53089 13.6165C8.53089 14.7396 8.01276 15.3246 7.37361 15.3246C6.73444 15.3246 6.21631 14.7396 6.21631 13.6165C6.21631 12.4933 6.73444 11.9083 7.37361 11.9083C8.01276 11.9083 8.53089 12.4933 8.53089 13.6165Z" fill="black"/>
<path d="M16.0532 13.6165C16.0532 14.7396 15.5351 15.3246 14.8959 15.3246C14.2568 15.3246 13.7386 14.7396 13.7386 13.6165C13.7386 12.4933 14.2568 11.9083 14.8959 11.9083C15.5351 11.9083 16.0532 12.4933 16.0532 13.6165Z" fill="black"/>
</g>
<defs>
<clipPath id="clip0_72_142">
<rect width="146" height="23" fill="white" transform="translate(0 -0.00976562)"/>
</clipPath>
</defs>
</svg>
