<svg width="125" height="27" viewBox="0 0 125 27" fill="none" xmlns="http://www.w3.org/2000/svg">
<g clip-path="url(#clip0_72_220)">
<path d="M12.1343 16.1605H10.4904C9.50408 16.1605 12.8623 20.8574 15.2812 21.3975C15.8214 21.515 16.1032 21.7733 16.1032 22.3134C16.1032 23.4641 16.1267 24.6149 16.1032 25.7656C16.0797 26.4232 15.7039 26.7285 15.0699 26.6345C10.4434 25.8596 7.06171 23.3937 4.9716 19.19C4.66631 18.6029 4.43146 17.9688 4.24359 17.3113C3.89132 16.231 3.86784 16.184 2.71711 16.137C1.30805 16.0901 0.368675 15.3621 0.0633787 14.0704C-0.288886 12.6144 0.861846 11.0879 2.38833 10.994C2.59969 10.9705 2.81104 10.9705 3.0224 10.994C3.67996 11.0409 4.03223 10.6887 4.19662 10.1016C4.57237 8.62206 5.25341 7.28345 6.09885 6.0153C6.80338 4.98199 7.17913 4.93502 8.07153 5.80394C8.75258 6.4615 9.41014 7.14255 10.0677 7.80011C10.5139 8.22283 10.6078 8.66903 10.2321 9.18568C10.0442 9.44401 9.87983 9.74931 9.73892 10.0546C9.43362 10.6887 9.59801 10.9705 10.3025 10.9705C11.5472 10.994 12.7684 10.9705 14.0131 10.9705C15.3282 10.994 16.291 11.7924 16.5963 13.1076C16.8312 14.1644 16.2441 15.456 15.1168 15.8787C14.4593 16.137 13.6843 16.0901 12.9563 16.1605C12.6745 16.184 12.4161 16.1605 12.1343 16.1605Z" fill="white"/>
<path d="M17.6061 0.400203C21.8803 0.588078 25.6612 2.70167 28.2445 6.83491C29.1369 8.26745 28.8786 9.60606 27.6104 10.381C26.2483 11.25 24.7219 10.8977 23.8529 9.51212C22.5613 7.42201 20.7295 6.08341 18.3106 5.63721C16.3145 5.28494 14.4357 5.66069 12.6979 6.694C11.9229 7.16369 11.6881 7.11672 11.054 6.48264C10.3729 5.8016 9.69189 5.12055 9.01084 4.43951C8.42374 3.82891 8.44722 3.4062 9.12827 2.88954C11.3123 1.29496 14.2948 0.355583 17.6061 0.400203Z" fill="white"/>
<path d="M17.794 24.0278V22.2665C17.794 21.8202 18.0289 21.5384 18.4281 21.468C20.8705 20.9513 22.6787 19.5892 23.9469 17.4756C24.5105 16.5363 25.4029 16.1605 26.4597 16.3249C27.4226 16.4658 28.1741 16.959 28.5968 17.8749C28.8786 18.509 28.8316 19.143 28.5263 19.7536C27.5165 21.7028 26.084 23.2528 24.2992 24.474C22.6553 25.6012 20.8235 26.3058 18.8508 26.5876C18.1463 26.6815 17.8175 26.4232 17.794 25.7186C17.7705 25.1785 17.794 24.5914 17.794 24.0278Z" fill="white"/>
<path d="M37.8966 8.26998V20.0591H35.6656V8.26998H32.0255V6.39124H41.5132V8.26998H37.8966Z" fill="white"/>
<path d="M41.5132 15.6441C41.5132 14.9865 41.6306 14.3759 41.8889 13.8123C42.1238 13.2252 42.4995 12.732 42.9457 12.2858C43.3919 11.8396 43.9321 11.5108 44.5192 11.276C45.1063 11.0411 45.7404 10.9237 46.3744 10.9237C47.0085 10.9237 47.6661 11.0411 48.2532 11.276C48.8403 11.5108 49.3804 11.8631 49.8266 12.3328C50.2963 12.779 50.6486 13.2956 50.8834 13.8827C51.1183 14.4464 51.2592 15.0569 51.2592 15.691C51.2592 16.3251 51.1418 16.9592 50.9069 17.5228C50.6721 18.0864 50.3198 18.6031 49.8501 19.0493C49.3569 19.519 48.8168 19.8712 48.2297 20.1061C47.6426 20.3409 47.0085 20.4583 46.351 20.4583C45.6934 20.4583 45.0828 20.3409 44.4957 20.1061C43.9086 19.8712 43.3684 19.519 42.9222 19.0728C42.4526 18.6031 42.1003 18.0864 41.8654 17.5228C41.6541 16.9122 41.5132 16.3016 41.5132 15.6441ZM49.1456 15.6675C49.1456 14.8456 48.8873 14.1411 48.3471 13.5774C47.807 13.0138 47.1729 12.732 46.3979 12.732C45.6229 12.732 44.9889 13.0138 44.4487 13.5774C43.9086 14.1411 43.6503 14.8456 43.6503 15.6675C43.6503 16.4895 43.9086 17.194 44.4487 17.7576C44.9889 18.3213 45.6229 18.6031 46.3979 18.6031C47.1729 18.6031 47.807 18.3213 48.3471 17.7576C48.8873 17.194 49.1456 16.4895 49.1456 15.6675Z" fill="white"/>
<path d="M53.4434 20.0826V5.59277H55.463V14.8926L59.1735 11.2055H61.6864L57.6705 15.1039L62.0856 20.0591H59.4553L55.463 15.4797V20.0591H53.4434V20.0826Z" fill="white"/>
<path d="M62.2734 15.6441C62.2734 14.9865 62.3909 14.3759 62.6492 13.8123C62.884 13.2252 63.2598 12.732 63.706 12.2858C64.1522 11.8396 64.6923 11.5108 65.2794 11.276C65.8665 11.0411 66.5006 10.9237 67.1347 10.9237C67.7688 10.9237 68.4263 11.0411 69.0134 11.276C69.6005 11.5108 70.1407 11.8631 70.5869 12.3328C71.0566 12.779 71.4088 13.2956 71.6437 13.8827C71.8785 14.4464 72.0194 15.0569 72.0194 15.691C72.0194 16.3251 71.902 16.9592 71.6672 17.5228C71.4323 18.0864 71.0801 18.6031 70.6104 19.0493C70.1172 19.519 69.5771 19.8712 68.9899 20.1061C68.4028 20.3409 67.7688 20.4583 67.1112 20.4583C66.4536 20.4583 65.8431 20.3409 65.2559 20.1061C64.6688 19.8712 64.1287 19.519 63.6825 19.0728C63.2128 18.6031 62.8605 18.0864 62.6257 17.5228C62.4143 16.9122 62.2734 16.3016 62.2734 15.6441ZM69.9058 15.6675C69.9058 14.8456 69.6475 14.1411 69.1074 13.5774C68.5672 13.0138 67.9332 12.732 67.1582 12.732C66.3832 12.732 65.7491 13.0138 65.209 13.5774C64.6688 14.1411 64.4105 14.8456 64.4105 15.6675C64.4105 16.4895 64.6688 17.194 65.209 17.7576C65.7491 18.3213 66.3832 18.6031 67.1582 18.6031C67.9332 18.6031 68.5672 18.3213 69.1074 17.7576C69.6475 17.194 69.9058 16.4895 69.9058 15.6675Z" fill="white"/>
<path d="M80.8026 13.7419C80.4973 13.3896 80.1215 13.1313 79.7223 12.9669C79.2996 12.779 78.8533 12.6851 78.3837 12.6851C77.5617 12.6851 76.8807 12.9434 76.3875 13.4835C75.8943 14.0237 75.636 14.7282 75.636 15.6206C75.636 16.513 75.8943 17.2645 76.3875 17.8047C76.8807 18.3213 77.5852 18.6031 78.4776 18.6031C78.9708 18.6031 79.417 18.5092 79.7927 18.3213C80.1685 18.1334 80.5207 17.8516 80.8026 17.4759V19.8243C80.4268 20.0357 80.0276 20.2001 79.6048 20.294C79.1821 20.3879 78.7359 20.4584 78.2428 20.4584C76.8572 20.4584 75.7299 20.0122 74.8375 19.1198C73.9686 18.2274 73.5459 17.0766 73.5459 15.6676C73.5459 14.2585 73.9921 13.0843 74.908 12.2154C75.8239 11.3465 76.9981 10.9003 78.4541 10.9003C78.9238 10.9003 79.3465 10.9472 79.7223 11.0412C80.098 11.1351 80.4738 11.276 80.8026 11.4639V13.7419Z" fill="white"/>
<path d="M84.9122 12.6146C85.1236 12.0275 85.4289 11.6048 85.7811 11.323C86.1334 11.0412 86.5796 10.9003 87.1198 10.9003C87.4016 10.9003 87.6834 10.9238 87.9652 10.9942C88.247 11.0647 88.5053 11.1586 88.7871 11.2995L88.0591 13.0139C87.8947 12.8964 87.7069 12.8025 87.4955 12.732C87.2841 12.6616 87.0728 12.6381 86.8145 12.6381C86.1334 12.6381 85.6637 12.8964 85.3584 13.4366C85.0766 13.9767 84.9122 14.8926 84.9122 16.1608V20.0592H82.8926V11.1821H84.9122V12.6146Z" fill="white"/>
<path d="M91.4644 24.2394H89.3743L91.8167 19.3077L88.5524 11.2056H90.8069L92.4273 15.785C92.5212 16.0668 92.6152 16.3486 92.6856 16.6304C92.7561 16.9123 92.8265 17.2176 92.85 17.5228C92.9204 17.2176 93.1318 16.7244 93.4371 16.0433L93.4841 15.9259L95.6681 11.2056H97.8756L91.4644 24.2394Z" fill="white"/>
<path d="M98.9559 24.2394V11.2056H100.976V12.6616C101.21 12.098 101.586 11.6753 102.103 11.37C102.619 11.0647 103.254 10.9003 103.958 10.9003C105.132 10.9003 106.095 11.3465 106.823 12.2154C107.551 13.0843 107.927 14.235 107.927 15.6441C107.927 17.1236 107.575 18.2978 106.847 19.1668C106.119 20.0357 105.132 20.4584 103.888 20.4584C103.254 20.4584 102.713 20.341 102.22 20.0826C101.727 19.8243 101.304 19.4486 100.952 18.9319V24.2628H98.9559V24.2394ZM100.929 15.6206C100.929 16.5365 101.163 17.2645 101.61 17.8281C102.079 18.3683 102.666 18.6501 103.418 18.6501C104.169 18.6501 104.78 18.3918 105.203 17.8751C105.625 17.3585 105.837 16.6304 105.837 15.6911C105.837 14.7517 105.625 14.0237 105.179 13.507C104.733 12.9904 104.146 12.7086 103.371 12.7086C102.596 12.7086 102.009 12.9669 101.586 13.4835C101.14 13.9767 100.929 14.7047 100.929 15.6206Z" fill="white"/>
<path d="M110.581 20.0826V12.9904H109.031V11.2055H110.581V7.84729H112.6V11.2055H114.15V12.9904H112.6V20.0826H110.581Z" fill="white"/>
<path d="M115.254 15.6441C115.254 14.9865 115.371 14.3759 115.63 13.8123C115.865 13.2252 116.24 12.732 116.687 12.2858C117.133 11.8396 117.673 11.5108 118.26 11.276C118.847 11.0411 119.481 10.9237 120.115 10.9237C120.749 10.9237 121.407 11.0411 121.994 11.276C122.581 11.5108 123.121 11.8631 123.567 12.3328C124.037 12.779 124.389 13.2956 124.624 13.8827C124.859 14.4464 125 15.0569 125 15.691C125 16.3251 124.883 16.9592 124.648 17.5228C124.413 18.0864 124.061 18.6031 123.591 19.0493C123.098 19.519 122.558 19.8712 121.971 20.1061C121.383 20.3409 120.749 20.4583 120.092 20.4583C119.434 20.4583 118.824 20.3409 118.237 20.1061C117.649 19.8712 117.109 19.519 116.663 19.0728C116.193 18.6031 115.841 18.0864 115.606 17.5228C115.371 16.9122 115.254 16.3016 115.254 15.6441ZM122.886 15.6675C122.886 14.8456 122.628 14.1411 122.088 13.5774C121.548 13.0138 120.914 12.732 120.139 12.732C119.364 12.732 118.73 13.0138 118.19 13.5774C117.649 14.1411 117.391 14.8456 117.391 15.6675C117.391 16.4895 117.649 17.194 118.19 17.7576C118.73 18.3213 119.364 18.6031 120.139 18.6031C120.914 18.6031 121.548 18.3213 122.088 17.7576C122.628 17.194 122.886 16.4895 122.886 15.6675Z" fill="white"/>
</g>
<defs>
<clipPath id="clip0_72_220">
<rect width="125" height="26.2508" fill="white" transform="translate(0 0.400391)"/>
</clipPath>
</defs>
</svg>
