<svg width="39" height="39" viewBox="0 0 39 39" fill="none" xmlns="http://www.w3.org/2000/svg">
<g clip-path="url(#clip0_292_2280)">
<path fill-rule="evenodd" clip-rule="evenodd" d="M19.4318 0C30.1645 0 38.8636 8.69916 38.8636 19.4318C38.8636 30.1645 30.1645 38.8636 19.4318 38.8636C8.69916 38.8636 0 30.1645 0 19.4318C0 8.69916 8.69916 0 19.4318 0Z" fill="#F0B90B"/>
<path d="M10.6794 19.4318L10.6934 24.57L15.0593 27.1392V30.1473L8.13828 26.0882V17.9293L10.6794 19.4318ZM10.6794 14.2936V17.2878L8.13672 15.7837V12.7895L10.6794 11.2854L13.2345 12.7895L10.6794 14.2936ZM16.8826 12.7895L19.4252 11.2854L21.9803 12.7895L19.4252 14.2936L16.8826 12.7895Z" fill="white"/>
<path d="M12.5166 23.505V20.4968L15.0592 22.0009V24.9951L12.5166 23.505ZM16.8825 28.2166L19.4252 29.7207L21.9803 28.2166V31.2108L19.4252 32.7149L16.8825 31.2108V28.2166ZM25.6269 12.7895L28.1695 11.2854L30.7246 12.7895V15.7837L28.1695 17.2878V14.2936L25.6269 12.7895ZM28.1695 24.57L28.1835 19.4318L30.7261 17.9277V26.0866L23.8051 30.1458V27.1376L28.1695 24.57Z" fill="white"/>
<path d="M26.3464 23.505L23.8037 24.9951V22.0009L26.3464 20.4968V23.505Z" fill="white"/>
<path d="M26.3462 15.3587L26.3602 18.3669L21.9818 20.936V26.0867L19.4392 27.5767L16.8965 26.0867V20.936L12.5182 18.3669V15.3587L15.0717 13.8546L19.4236 16.4361L23.802 13.8546L26.3571 15.3587H26.3462ZM12.5166 10.222L19.4252 6.1488L26.3462 10.222L23.8036 11.7261L19.4252 9.14454L15.0592 11.7261L12.5166 10.222Z" fill="white"/>
</g>
<defs>
<clipPath id="clip0_292_2280">
<rect width="38.8636" height="38.8636" fill="white"/>
</clipPath>
</defs>
</svg>
