<svg width="28" height="21" viewBox="0 0 28 21" fill="none" xmlns="http://www.w3.org/2000/svg">
<path d="M18.3437 18.4084C17.9859 18.4971 17.6257 18.5757 17.2636 18.6442C15.2984 19.02 13.2808 19.0123 11.3184 18.6215C10.9748 18.5535 10.4883 18.4334 9.86116 18.2633L7.8058 20.9771C2.73321 20.8116 0.805051 17.3588 0.805051 17.3588C0.805051 9.69374 4.11015 3.47964 4.11015 3.47964C7.41525 0.911028 10.5597 0.981308 10.5597 0.981308L11.459 2.17153C11.5419 2.15973 11.6253 2.15216 11.709 2.14886C13.4234 1.918 15.1607 1.92563 16.8731 2.17153L17.8595 0.981308C17.8595 0.981308 21.0061 0.911028 24.309 3.48191C24.309 3.48191 27.6163 9.69374 27.6163 17.3588C27.6163 17.3588 25.6636 20.8093 20.591 20.9771L18.3437 18.4084ZM9.77859 10.2923C8.43736 10.2923 7.37732 11.3124 7.37732 12.5593C7.37732 13.8062 8.45967 14.8264 9.77859 14.8264C11.1176 14.8264 12.1776 13.8062 12.1776 12.5593C12.2 11.3124 11.1198 10.2923 9.77859 10.2923ZM18.3661 10.2923C17.0271 10.2923 15.967 11.3124 15.967 12.5593C15.967 13.8062 17.0494 14.8264 18.3661 14.8264C19.7073 14.8264 20.7673 13.8062 20.7673 12.5593C20.7673 11.3124 19.7073 10.2923 18.3661 10.2923Z" fill="#2AA0F8"/>
</svg>
