<svg width="28" height="27" viewBox="0 0 28 27" fill="none" xmlns="http://www.w3.org/2000/svg">
<path d="M14.0988 0.0703125C17.7022 0.0703125 18.1518 0.0835749 19.5656 0.149887C20.978 0.2162 21.9396 0.437683 22.7857 0.766593C23.661 1.10346 24.3984 1.55969 25.1358 2.29576C25.8102 2.95874 26.332 3.76072 26.665 4.64587C26.9926 5.49069 27.2154 6.45355 27.2817 7.866C27.344 9.27978 27.3613 9.72938 27.3613 13.3328C27.3613 16.9362 27.348 17.3858 27.2817 18.7996C27.2154 20.212 26.9926 21.1736 26.665 22.0197C26.333 22.9054 25.811 23.7075 25.1358 24.3698C24.4726 25.044 23.6707 25.5658 22.7857 25.899C21.9409 26.2266 20.978 26.4494 19.5656 26.5157C18.1518 26.578 17.7022 26.5953 14.0988 26.5953C10.4954 26.5953 10.0458 26.582 8.63199 26.5157C7.21954 26.4494 6.25801 26.2266 5.41186 25.899C4.52636 25.5667 3.72425 25.0448 3.06175 24.3698C2.38723 23.707 1.86538 22.905 1.53258 22.0197C1.20367 21.1749 0.982191 20.212 0.915879 18.7996C0.853545 17.3858 0.836304 16.9362 0.836304 13.3328C0.836304 9.72938 0.849566 9.27978 0.915879 7.866C0.982191 6.45222 1.20367 5.49202 1.53258 4.64587C1.86446 3.76017 2.38643 2.95798 3.06175 2.29576C3.72444 1.621 4.52649 1.09912 5.41186 0.766593C6.25801 0.437683 7.21821 0.2162 8.63199 0.149887C10.0458 0.0875537 10.4954 0.0703125 14.0988 0.0703125ZM14.0988 6.70156C12.3401 6.70156 10.6534 7.4002 9.40979 8.6438C8.16619 9.8874 7.46754 11.5741 7.46754 13.3328C7.46754 15.0915 8.16619 16.7782 9.40979 18.0218C10.6534 19.2654 12.3401 19.964 14.0988 19.964C15.8575 19.964 17.5442 19.2654 18.7878 18.0218C20.0314 16.7782 20.73 15.0915 20.73 13.3328C20.73 11.5741 20.0314 9.8874 18.7878 8.6438C17.5442 7.4002 15.8575 6.70156 14.0988 6.70156ZM22.7194 6.36999C22.7194 5.93031 22.5447 5.50864 22.2338 5.19774C21.9229 4.88684 21.5013 4.71218 21.0616 4.71218C20.6219 4.71218 20.2002 4.88684 19.8893 5.19774C19.5784 5.50864 19.4038 5.93031 19.4038 6.36999C19.4038 6.80967 19.5784 7.23134 19.8893 7.54224C20.2002 7.85314 20.6219 8.0278 21.0616 8.0278C21.5013 8.0278 21.9229 7.85314 22.2338 7.54224C22.5447 7.23134 22.7194 6.80967 22.7194 6.36999ZM14.0988 9.35405C15.154 9.35405 16.166 9.77324 16.9122 10.5194C17.6583 11.2656 18.0775 12.2776 18.0775 13.3328C18.0775 14.388 17.6583 15.4 16.9122 16.1462C16.166 16.8924 15.154 17.3115 14.0988 17.3115C13.0436 17.3115 12.0315 16.8924 11.2854 16.1462C10.5392 15.4 10.12 14.388 10.12 13.3328C10.12 12.2776 10.5392 11.2656 11.2854 10.5194C12.0315 9.77324 13.0436 9.35405 14.0988 9.35405Z" fill="#2AA0F8"/>
</svg>
