<svg width="29" height="22" viewBox="0 0 29 22" fill="none" xmlns="http://www.w3.org/2000/svg">
<path d="M28.2297 2.7032C27.1913 3.14819 26.09 3.44044 24.9624 3.57027C26.1509 2.88166 27.0405 1.79792 27.4653 0.521008C26.3499 1.16407 25.127 1.61474 23.8524 1.85852C22.9963 0.971122 21.8615 0.382596 20.6245 0.184435C19.3875 -0.0137253 18.1175 0.189583 17.0121 0.762753C15.9066 1.33592 15.0276 2.24684 14.5117 3.35389C13.9958 4.46094 13.8719 5.7021 14.1593 6.88441C11.8973 6.77458 9.68447 6.20514 7.66443 5.21306C5.64439 4.22098 3.8623 2.82845 2.43386 1.12585C1.92824 1.96717 1.66254 2.92356 1.66396 3.89707C1.66396 5.80781 2.66783 7.49584 4.19403 8.48415C3.29084 8.45661 2.40752 8.22031 1.61771 7.79497V7.86349C1.61798 9.13604 2.07254 10.3693 2.9043 11.3543C3.73607 12.3392 4.89386 13.0152 6.18136 13.2676C5.34292 13.4877 4.46378 13.5201 3.61048 13.3624C3.97349 14.4578 4.68101 15.4158 5.63399 16.1022C6.58696 16.7886 7.73767 17.1692 8.925 17.1905C7.74495 18.0883 6.39381 18.752 4.94881 19.1436C3.50382 19.5353 1.99331 19.6471 0.503662 19.4728C3.10406 21.0929 6.13117 21.953 9.22289 21.9502C19.6873 21.9502 25.4099 13.5522 25.4099 6.26902C25.4099 6.03183 25.4031 5.792 25.3922 5.55744C26.5061 4.77755 27.4674 3.81145 28.2311 2.70451L28.2297 2.7032Z" fill="#2AA0F8"/>
</svg>
