<svg width="27" height="22" viewBox="0 0 27 22" fill="none" xmlns="http://www.w3.org/2000/svg">
<path d="M26.0606 3.57225C26.6628 5.92047 26.6628 10.8225 26.6628 10.8225C26.6628 10.8225 26.6628 15.7245 26.0606 18.0727C25.7259 19.3707 24.7468 20.392 23.5068 20.7372C21.2547 21.3645 13.4853 21.3645 13.4853 21.3645C13.4853 21.3645 5.71984 21.3645 3.46386 20.7372C2.21859 20.3867 1.24083 19.3668 0.910071 18.0727C0.307861 15.7245 0.307861 10.8225 0.307861 10.8225C0.307861 10.8225 0.307861 5.92047 0.910071 3.57225C1.24478 2.27427 2.22386 1.25301 3.46386 0.907765C5.71984 0.280517 13.4853 0.280518 13.4853 0.280518C13.4853 0.280518 21.2547 0.280517 23.5068 0.907765C24.752 1.25829 25.7298 2.27822 26.0606 3.57225ZM10.8498 15.4346L18.7563 10.8225L10.8498 6.21038V15.4346Z" fill="#2AA0F8"/>
</svg>
