<svg width="24" height="18" viewBox="0 0 24 18" fill="none" xmlns="http://www.w3.org/2000/svg">
<g clip-path="url(#clip0_1_771)">
<g clip-path="url(#clip1_1_771)">
<g clip-path="url(#clip2_1_771)">
<path d="M19.1208 1.99917C17.776 1.39273 16.3346 0.944487 14.8273 0.689604C14.8139 0.687027 14.8 0.688688 14.7875 0.694357C14.7751 0.700026 14.7648 0.709422 14.7579 0.721245C14.5733 1.04556 14.3676 1.46832 14.2235 1.8023C12.6248 1.56344 10.9996 1.56344 9.40095 1.8023C9.2404 1.43216 9.05936 1.07125 8.85866 0.721245C8.85186 0.709277 8.84157 0.699667 8.82916 0.6937C8.81675 0.687733 8.80282 0.685691 8.78923 0.687846C7.28279 0.942729 5.84138 1.39097 4.49577 1.9983C4.4842 2.00315 4.47438 2.01143 4.46764 2.02203C1.73249 6.04302 0.982783 9.96469 1.35105 13.8371C1.35207 13.8467 1.35501 13.8558 1.3597 13.8641C1.36438 13.8725 1.37071 13.8797 1.37829 13.8855C2.97473 15.0478 4.75534 15.9332 6.64558 16.5046C6.65875 16.5087 6.67285 16.5087 6.68602 16.5046C6.69918 16.5006 6.71083 16.4926 6.7194 16.4818C7.12616 15.9378 7.4866 15.3607 7.79694 14.7565C7.80125 14.7482 7.80374 14.7392 7.80422 14.7298C7.80471 14.7205 7.80319 14.7112 7.79978 14.7025C7.79637 14.6939 7.79113 14.686 7.78441 14.6796C7.77771 14.6731 7.7697 14.6682 7.76091 14.6651C7.19314 14.4513 6.64302 14.1933 6.1156 13.8934C6.10612 13.888 6.09813 13.8803 6.09236 13.8711C6.08657 13.8618 6.08319 13.8513 6.08249 13.8404C6.08179 13.8294 6.08381 13.8186 6.08836 13.8086C6.09291 13.7988 6.09986 13.7902 6.10857 13.7835C6.2193 13.7018 6.33005 13.6165 6.43552 13.5313C6.44501 13.5236 6.45645 13.5188 6.46855 13.5172C6.48065 13.5157 6.49295 13.5175 6.50407 13.5225C9.95557 15.0729 13.6936 15.0729 17.1046 13.5225C17.1157 13.5172 17.1281 13.5151 17.1404 13.5165C17.1527 13.5179 17.1643 13.5227 17.1739 13.5304C17.2794 13.6165 17.3893 13.7018 17.5009 13.7835C17.5098 13.79 17.5168 13.7985 17.5215 13.8083C17.5262 13.8182 17.5284 13.829 17.5279 13.8399C17.5273 13.8508 17.5241 13.8614 17.5185 13.8707C17.5129 13.8801 17.5051 13.8878 17.4957 13.8934C16.9701 14.1957 16.4234 14.4515 15.8494 14.6642C15.8406 14.6674 15.8327 14.6724 15.8259 14.679C15.8193 14.6856 15.814 14.6934 15.8105 14.7022C15.8072 14.711 15.8057 14.7203 15.8061 14.7296C15.8066 14.739 15.8091 14.7482 15.8134 14.7565C16.1299 15.3603 16.4919 15.9351 16.8901 16.4809C16.8984 16.4921 16.9099 16.5005 16.9232 16.5049C16.9364 16.5093 16.9506 16.5095 16.9639 16.5055C18.8574 15.9356 20.6409 15.0499 22.2392 13.8855C22.2469 13.8801 22.2535 13.873 22.2583 13.8648C22.2632 13.8566 22.2663 13.8475 22.2673 13.8381C22.7067 9.36089 21.5307 5.47086 19.148 2.02378C19.1421 2.01258 19.1325 2.00385 19.1208 1.99917ZM8.31286 11.479C7.27399 11.479 6.41706 10.5395 6.41706 9.38726C6.41706 8.23414 7.2573 7.29547 8.31286 7.29547C9.37634 7.29547 10.2254 8.24204 10.2087 9.38726C10.2087 10.5404 9.36842 11.479 8.31286 11.479ZM15.3221 11.479C14.2824 11.479 13.4264 10.5395 13.4264 9.38726C13.4264 8.23414 14.2657 7.29547 15.3221 7.29547C16.3856 7.29547 17.2346 8.24204 17.2179 9.38726C17.2179 10.5404 16.3864 11.479 15.3221 11.479Z" fill="white"/>
</g>
</g>
</g>
<defs>
<clipPath id="clip0_1_771">
<rect width="22.5" height="16.88" fill="white" transform="translate(0.55957 0.560059)"/>
</clipPath>
<clipPath id="clip1_1_771">
<rect width="22.5" height="16.88" fill="white" transform="translate(0.55957 0.560059)"/>
</clipPath>
<clipPath id="clip2_1_771">
<rect width="22.5" height="16.875" fill="white" transform="translate(0.55957 0.5625)"/>
</clipPath>
</defs>
</svg>
