<svg width="19" height="20" viewBox="0 0 19 20" fill="none" xmlns="http://www.w3.org/2000/svg">
<g clip-path="url(#clip0_1_781)">
<g clip-path="url(#clip1_1_781)">
<g clip-path="url(#clip2_1_781)">
<path d="M13.4922 1.21594H5.75781C4.45245 1.21594 3.20056 1.73449 2.27752 2.65753C1.35449 3.58056 0.835938 4.83245 0.835938 6.13782V13.8722C0.835938 15.1776 1.35449 16.4294 2.27752 17.3525C3.20056 18.2755 4.45245 18.7941 5.75781 18.7941H13.4922C14.7976 18.7941 16.0494 18.2755 16.9725 17.3525C17.8955 16.4294 18.4141 15.1776 18.4141 13.8722V6.13782C18.4141 4.83245 17.8955 3.58056 16.9725 2.65753C16.0494 1.73449 14.7976 1.21594 13.4922 1.21594ZM9.625 14.2238C8.79061 14.2238 7.97495 13.9763 7.28118 13.5128C6.58742 13.0492 6.04669 12.3903 5.72738 11.6195C5.40808 10.8486 5.32453 10.0003 5.48732 9.18196C5.65009 8.36361 6.05189 7.6119 6.64189 7.0219C7.2319 6.43189 7.98361 6.0301 8.80196 5.86732C9.62032 5.70453 10.4686 5.78808 11.2395 6.10739C12.0103 6.4267 12.6692 6.96742 13.1327 7.66119C13.5963 8.35496 13.8438 9.17061 13.8438 10.005C13.8438 11.1239 13.3993 12.197 12.6081 12.9881C11.817 13.7793 10.7439 14.2238 9.625 14.2238ZM14.1953 6.48938C13.9867 6.48938 13.7828 6.42752 13.6094 6.31163C13.4359 6.19575 13.3007 6.03103 13.2209 5.8383C13.1411 5.64558 13.1202 5.43352 13.1609 5.22893C13.2016 5.02434 13.3021 4.83642 13.4495 4.68891C13.597 4.54141 13.785 4.44096 13.9895 4.40027C14.1942 4.35958 14.4062 4.38046 14.5989 4.46029C14.7917 4.54011 14.9564 4.6753 15.0723 4.84874C15.1881 5.02218 15.25 5.2261 15.25 5.43469C15.25 5.71441 15.1389 5.98268 14.9411 6.18047C14.7433 6.37826 14.4751 6.48938 14.1953 6.48938Z" fill="white"/>
</g>
</g>
</g>
<defs>
<clipPath id="clip0_1_781">
<rect width="18.75" height="18.75" fill="white" transform="translate(0.25 0.630005)"/>
</clipPath>
<clipPath id="clip1_1_781">
<rect width="18.75" height="18.75" fill="white" transform="translate(0.25 0.630005)"/>
</clipPath>
<clipPath id="clip2_1_781">
<rect width="18.75" height="18.75" fill="white" transform="translate(0.25 0.630005)"/>
</clipPath>
</defs>
</svg>
