<svg width="20" height="20" viewBox="0 0 20 20" fill="none" xmlns="http://www.w3.org/2000/svg">
<g clip-path="url(#clip0_1_786)">
<g clip-path="url(#clip1_1_786)">
<g clip-path="url(#clip2_1_786)">
<path d="M17.688 4.54113L19.1536 3.16369V2.86218H14.0766L10.4582 11.7103L6.34162 2.86218H1.01814V3.16369L2.73013 5.1885C2.89697 5.33812 2.98421 5.55692 2.96202 5.77722V13.7343C3.01483 14.0208 2.91993 14.3156 2.71483 14.5239L0.786255 16.82V17.1178H6.25437V16.8163L4.32579 14.5239C4.11687 14.3148 4.01814 14.0253 4.06023 13.7343V6.85166L8.86023 17.1216H9.41814L13.5454 6.85166V15.0329C13.5454 15.2486 13.5454 15.293 13.4016 15.4343L11.9169 16.8457V17.1479H19.1199V16.8464L17.6888 15.4697C17.5633 15.3765 17.4983 15.22 17.5251 15.0682V4.94264C17.4983 4.79 17.5626 4.63361 17.688 4.54113Z" fill="white"/>
</g>
</g>
</g>
<defs>
<clipPath id="clip0_1_786">
<rect width="18.75" height="18.75" fill="white" transform="translate(0.660278 0.630005)"/>
</clipPath>
<clipPath id="clip1_1_786">
<rect width="18.75" height="18.75" fill="white" transform="translate(0.660278 0.630005)"/>
</clipPath>
<clipPath id="clip2_1_786">
<rect width="18.75" height="14.2857" fill="white" transform="translate(0.660278 2.86218)"/>
</clipPath>
</defs>
</svg>
