<svg width="23" height="20" viewBox="0 0 23 20" fill="none" xmlns="http://www.w3.org/2000/svg">
<g clip-path="url(#clip0_1_776)">
<g clip-path="url(#clip1_1_776)">
<g clip-path="url(#clip2_1_776)">
<path fill-rule="evenodd" clip-rule="evenodd" d="M16.8921 18.7398C17.1745 18.9397 17.5384 18.9897 17.8627 18.8669C18.1872 18.7433 18.4256 18.4662 18.4976 18.1304C19.2595 14.5496 21.1078 5.48592 21.8014 2.22856C21.854 1.98306 21.7663 1.7279 21.5734 1.56394C21.3805 1.39998 21.1131 1.35263 20.8746 1.44119C17.1981 2.80199 5.87585 7.05015 1.24804 8.76256C0.95431 8.87129 0.763164 9.15362 0.77281 9.46313C0.783332 9.77353 0.992012 10.0427 1.29276 10.133C3.36817 10.7538 6.09243 11.6174 6.09243 11.6174C6.09243 11.6174 7.36556 15.4623 8.0293 17.4176C8.1126 17.663 8.30463 17.856 8.55802 17.9226C8.81054 17.9884 9.0806 17.9191 9.26911 17.7411C10.3354 16.7345 11.9837 15.1782 11.9837 15.1782C11.9837 15.1782 15.1157 17.4746 16.8921 18.7398ZM7.23842 11.1317L8.71058 15.9875L9.03764 12.9125C9.03764 12.9125 14.7255 7.78229 17.9679 4.85812C18.0626 4.77219 18.0758 4.6284 17.9969 4.52756C17.9189 4.42673 17.7751 4.40306 17.6672 4.47145C13.9092 6.87128 7.23842 11.1317 7.23842 11.1317Z" fill="white"/>
</g>
</g>
</g>
<defs>
<clipPath id="clip0_1_776">
<rect width="22" height="18.33" fill="white" transform="translate(0.219727 0.829956)"/>
</clipPath>
<clipPath id="clip1_1_776">
<rect width="22" height="18.33" fill="white" transform="translate(0.219727 0.829956)"/>
</clipPath>
<clipPath id="clip2_1_776">
<rect width="22" height="18.1739" fill="white" transform="translate(0.219727 0.907959)"/>
</clipPath>
</defs>
</svg>
