<svg width="22" height="18" viewBox="0 0 22 18" fill="none" xmlns="http://www.w3.org/2000/svg">
<g clip-path="url(#clip0_1_766)">
<g clip-path="url(#clip1_1_766)">
<g clip-path="url(#clip2_1_766)">
<path d="M21.4477 2.58211C20.7132 2.9076 19.9241 3.12752 19.0945 3.22692C19.9505 2.71476 20.5909 1.90868 20.8961 0.959076C20.0919 1.43674 19.2118 1.77296 18.294 1.95313C17.6768 1.29412 16.8593 0.857318 15.9684 0.71054C15.0774 0.563762 14.163 0.715218 13.367 1.1414C12.5711 1.56757 11.938 2.24463 11.5662 3.06745C11.1945 3.89025 11.1048 4.81279 11.311 5.69182C9.68153 5.61001 8.08748 5.18649 6.63229 4.44874C5.17709 3.71099 3.89328 2.6755 2.86418 1.40948C2.51231 2.01647 2.30998 2.72022 2.30998 3.46973C2.30958 4.14444 2.47574 4.80883 2.7937 5.40393C3.11166 5.99904 3.5716 6.50646 4.1327 6.88117C3.48197 6.86047 2.8456 6.68464 2.27655 6.36831V6.42109C2.27648 7.36741 2.60382 8.28461 3.20303 9.01706C3.80223 9.74951 4.63639 10.2521 5.56396 10.4396C4.96031 10.6029 4.32742 10.627 3.71309 10.5099C3.97479 11.3242 4.48458 12.0362 5.17106 12.5464C5.85755 13.0565 6.68638 13.3392 7.54151 13.3548C6.08987 14.4944 4.29711 15.1125 2.45161 15.1098C2.1247 15.1099 1.79806 15.0908 1.47339 15.0526C3.34668 16.2571 5.52732 16.8964 7.7544 16.8939C15.2933 16.8939 19.4147 10.6498 19.4147 5.23439C19.4147 5.05845 19.4103 4.88075 19.4024 4.70481C20.2041 4.12507 20.896 3.40718 21.4459 2.58475L21.4477 2.58211Z" fill="white"/>
</g>
</g>
</g>
<defs>
<clipPath id="clip0_1_766">
<rect width="21.03" height="17.09" fill="white" transform="translate(0.890472 0.450195)"/>
</clipPath>
<clipPath id="clip1_1_766">
<rect width="21.03" height="17.09" fill="white" transform="translate(0.890472 0.450195)"/>
</clipPath>
<clipPath id="clip2_1_766">
<rect width="20.8878" height="17.09" fill="white" transform="translate(0.961578 0.450195)"/>
</clipPath>
</defs>
</svg>
