<svg width="20" height="20" viewBox="0 0 20 20" fill="none" xmlns="http://www.w3.org/2000/svg">
<g clip-path="url(#clip0_1_761)">
<g clip-path="url(#clip1_1_761)">
<path d="M13.5353 11.5105C13.6039 10.9442 13.6554 10.3779 13.6554 9.79456C13.6554 9.21113 13.6039 8.64488 13.5353 8.07862H16.4353C16.5725 8.62772 16.6584 9.20256 16.6584 9.79456C16.6584 10.3866 16.5725 10.9614 16.4353 11.5105H13.5353ZM12.0167 16.2808C12.5315 15.3284 12.9261 14.2989 13.2007 13.2264H15.7317C14.9005 14.6577 13.5817 15.742 12.0167 16.2808ZM11.8022 11.5105H7.78691C7.70111 10.9442 7.64963 10.3779 7.64963 9.79456C7.64963 9.21113 7.70111 8.6363 7.78691 8.07862H11.8022C11.8795 8.6363 11.9395 9.21113 11.9395 9.79456C11.9395 10.3779 11.8795 10.9442 11.8022 11.5105ZM9.79456 16.624C9.08244 15.5945 8.5076 14.4534 8.15584 13.2264H11.4333C11.0815 14.4534 10.5067 15.5945 9.79456 16.624ZM6.36267 6.36267H3.8574C4.68007 4.92747 5.99786 3.84151 7.56383 3.30829C7.04905 4.26064 6.66297 5.29021 6.36267 6.36267ZM3.8574 13.2264H6.36267C6.66297 14.2989 7.04905 15.3284 7.56383 16.2808C6.00114 15.7417 4.68521 14.6573 3.8574 13.2264ZM3.15386 11.5105C3.01658 10.9614 2.93079 10.3866 2.93079 9.79456C2.93079 9.20256 3.01658 8.62772 3.15386 8.07862H6.05381C5.98516 8.64488 5.93369 9.21113 5.93369 9.79456C5.93369 10.3779 5.98516 10.9442 6.05381 11.5105H3.15386ZM9.79456 2.95652C10.5067 3.9861 11.0815 5.13577 11.4333 6.36267H8.15584C8.5076 5.13577 9.08244 3.9861 9.79456 2.95652ZM15.7317 6.36267H13.2007C12.9321 5.30004 12.5345 4.27428 12.0167 3.30829C13.5953 3.84882 14.908 4.93844 15.7317 6.36267ZM9.79456 1.21484C5.04998 1.21484 1.21484 5.07572 1.21484 9.79456C1.21484 12.07 2.11878 14.2523 3.72779 15.8614C4.52448 16.658 5.47031 17.29 6.51124 17.7212C7.55219 18.1524 8.66786 18.3742 9.79456 18.3742C12.07 18.3742 14.2523 17.4704 15.8614 15.8614C17.4704 14.2523 18.3742 12.07 18.3742 9.79456C18.3742 8.66786 18.1524 7.55219 17.7212 6.51124C17.29 5.47031 16.658 4.52448 15.8614 3.72779C15.0646 2.93108 14.1188 2.29911 13.0779 1.86793C12.037 1.43676 10.9212 1.21484 9.79456 1.21484Z" fill="white"/>
</g>
</g>
<defs>
<clipPath id="clip0_1_761">
<rect width="18.52" height="18.52" fill="white" transform="translate(0.730469 0.72998)"/>
</clipPath>
<clipPath id="clip1_1_761">
<rect width="18.52" height="18.52" fill="white" transform="translate(0.730469 0.72998)"/>
</clipPath>
</defs>
</svg>
