<svg width="21" height="20" viewBox="0 0 21 20" fill="none" xmlns="http://www.w3.org/2000/svg">
<g clip-path="url(#clip0_176_514)">
<g clip-path="url(#clip1_176_514)">
<g clip-path="url(#clip2_176_514)">
<path d="M10.2899 0.97644C8.49927 0.97644 6.74887 1.50742 5.26001 2.50225C3.77116 3.49707 2.61074 4.91104 1.92549 6.56536C1.24025 8.21969 1.06096 10.0401 1.41029 11.7963C1.75963 13.5525 2.6219 15.1658 3.88806 16.4319C5.15423 17.698 6.76742 18.5603 8.52365 18.9096C10.2799 19.2589 12.1002 19.0797 13.7545 18.3944C15.4089 17.7091 16.8228 16.5487 17.8177 15.0599C18.8125 13.5711 19.3435 11.8206 19.3435 10.03C19.3389 7.63027 18.3835 5.33014 16.6866 3.63326C14.9898 1.93637 12.6896 0.981042 10.2899 0.97644ZM10.1158 5.15501C10.3224 5.15501 10.5244 5.21628 10.6962 5.33107C10.868 5.44585 11.0019 5.609 11.0809 5.79989C11.16 5.99077 11.1807 6.20081 11.1404 6.40346C11.1001 6.60609 11.0006 6.79223 10.8545 6.93833C10.7084 7.08443 10.5222 7.18392 10.3196 7.22423C10.1169 7.26454 9.90691 7.24385 9.71603 7.16478C9.52515 7.08571 9.36199 6.95181 9.24721 6.78003C9.13242 6.60823 9.07115 6.40627 9.07115 6.19965C9.07115 5.9226 9.18121 5.65689 9.37712 5.46098C9.57302 5.26508 9.83874 5.15501 10.1158 5.15501ZM10.9863 14.905H10.2899C10.1052 14.905 9.92806 14.8316 9.79745 14.7011C9.66685 14.5704 9.59347 14.3933 9.59347 14.2086V10.03C9.40876 10.03 9.23164 9.95664 9.10103 9.82603C8.97042 9.69543 8.89704 9.51829 8.89704 9.33358C8.89704 9.14888 8.97042 8.97173 9.10103 8.84114C9.23164 8.71053 9.40876 8.63715 9.59347 8.63715H10.2899C10.4746 8.63715 10.6518 8.71053 10.7824 8.84114C10.913 8.97173 10.9863 9.14888 10.9863 9.33358V13.5122C11.171 13.5122 11.3482 13.5855 11.4788 13.7161C11.6094 13.8467 11.6828 14.0239 11.6828 14.2086C11.6828 14.3933 11.6094 14.5704 11.4788 14.7011C11.3482 14.8316 11.171 14.905 10.9863 14.905Z" fill="#666666"/>
</g>
</g>
</g>
<defs>
<clipPath id="clip0_176_514">
<rect width="19.5" height="19.5" fill="white" transform="translate(0.540039 0.280029)"/>
</clipPath>
<clipPath id="clip1_176_514">
<rect width="19.5" height="19.5" fill="white" transform="translate(0.540039 0.280029)"/>
</clipPath>
<clipPath id="clip2_176_514">
<rect width="19.5" height="19.5" fill="white" transform="translate(0.540039 0.280029)"/>
</clipPath>
</defs>
</svg>
