<svg width="70" height="127" viewBox="0 0 70 127" fill="none" xmlns="http://www.w3.org/2000/svg">
<g clip-path="url(#clip0_1_887)">
<g clip-path="url(#clip1_1_887)">
<g clip-path="url(#clip2_1_887)">
<path d="M33.6856 86.3404C31.0565 86.3404 28.8393 85.4092 27.034 83.5469C25.2242 81.6846 24.429 79.4937 24.6481 76.9742C24.9767 72.3733 26.0721 68.3748 27.9344 64.9789C29.7967 61.583 32.7545 58.0775 36.8077 54.4624C41.2991 50.5188 44.7213 47.0944 47.0743 44.1892C49.4318 41.2884 50.6105 37.9757 50.6105 34.2512C50.6105 29.7598 49.1053 26.0352 46.095 23.0775C43.0802 20.1197 38.889 18.6409 33.5213 18.6409C30.0158 18.6409 27.0318 19.3792 24.5692 20.8559C22.1022 22.337 20.1019 24.1729 18.5682 26.3638C17.0346 28.5548 15.146 30.0337 12.9025 30.8004C10.6546 31.5673 8.48998 31.5126 6.4086 30.6362C3.88904 29.5407 2.16478 27.7332 1.23583 25.2137C0.302493 22.6941 0.493106 20.3388 1.80766 18.1479C4.9845 13.2183 9.25679 9.11034 14.6246 5.82396C19.9924 2.53757 26.2912 0.894379 33.5213 0.894379C45.0236 0.894379 53.8706 4.0997 60.0621 10.5103C66.2493 16.9166 69.3429 24.6112 69.3429 33.5939C69.3429 39.0712 68.1664 43.7554 65.8133 47.6465C63.4559 51.5332 59.7576 55.9413 54.7185 60.8709C50.9939 64.3764 48.3647 67.2246 46.8312 69.4155C45.2975 71.6064 44.2568 74.126 43.7091 76.9742C43.2709 79.7128 42.1207 81.9585 40.2584 83.7113C38.3961 85.464 36.2052 86.3404 33.6856 86.3404ZM33.5213 125.777C29.9062 125.777 26.8126 124.491 24.2405 121.918C21.664 119.342 20.3757 116.246 20.3757 112.631C20.3757 109.017 21.664 105.921 24.2405 103.344C26.8126 100.772 29.9062 99.4859 33.5213 99.4859C37.1363 99.4859 40.232 100.772 42.8086 103.344C45.3808 105.921 46.6668 109.017 46.6668 112.631C46.6668 116.246 45.3808 119.342 42.8086 121.918C40.232 124.491 37.1363 125.777 33.5213 125.777Z" fill="white"/>
</g>
</g>
</g>
<defs>
<clipPath id="clip0_1_887">
<rect width="70" height="127" fill="white"/>
</clipPath>
<clipPath id="clip1_1_887">
<rect width="70" height="127" fill="white"/>
</clipPath>
<clipPath id="clip2_1_887">
<rect width="70" height="125.211" fill="white" transform="translate(0 0.894379)"/>
</clipPath>
</defs>
</svg>
