<svg width="23" height="23" viewBox="0 0 23 23" fill="none" xmlns="http://www.w3.org/2000/svg">
<g clip-path="url(#clip0_1_796)">
<g clip-path="url(#clip1_1_796)">
<g clip-path="url(#clip2_1_796)">
<path d="M11.5005 23.001C17.8521 23.001 23.001 17.8521 23.001 11.5005C23.001 5.14896 17.8521 0 11.5005 0C5.14896 0 0 5.14896 0 11.5005C0 17.8521 5.14896 23.001 11.5005 23.001Z" fill="#26A17B"/>
<path d="M12.7265 12.5619C12.6469 12.5671 12.2361 12.5919 11.3236 12.5919C10.5932 12.5919 10.0821 12.5712 9.90003 12.5619C7.09111 12.4378 4.9971 11.9494 4.9971 11.3638C4.9971 10.7783 7.09422 10.2899 9.90003 10.1658V12.0756C10.0832 12.0891 10.6098 12.1201 11.3371 12.1201C12.2092 12.1201 12.6458 12.0829 12.7276 12.0756V10.1679C15.5303 10.2941 17.6202 10.7814 17.6202 11.3659C17.6202 11.9505 15.5292 12.4378 12.7276 12.564M12.7276 9.97025V8.26111H16.6383V5.65601H5.99134V8.26111H9.9021V9.96922C6.72383 10.1151 4.33496 10.7441 4.33496 11.4983C4.33496 12.2526 6.7259 12.8816 9.9021 13.0295V18.5056H12.7286V13.0295C15.9017 12.8837 18.2864 12.2546 18.2864 11.5004C18.2864 10.7462 15.9017 10.1172 12.7286 9.97129" fill="white"/>
</g>
</g>
</g>
<defs>
<clipPath id="clip0_1_796">
<rect width="23" height="23" fill="white"/>
</clipPath>
<clipPath id="clip1_1_796">
<rect width="23" height="23" fill="white"/>
</clipPath>
<clipPath id="clip2_1_796">
<rect width="23" height="23" fill="white"/>
</clipPath>
</defs>
</svg>
